<?xml version="1.0" encoding="UTF-8"?>
<svg version="1.1" xmlns="http://www.w3.org/2000/svg" width="1824" height="1812">
<path d="M0 0 C1.84454269 0.00456207 1.84454269 0.00456207 3.72634888 0.00921631 C19.06304423 0.06491005 34.30669979 0.42235985 49.5625 2.0625 C50.86880371 2.20244385 52.17510742 2.3423877 53.52099609 2.48657227 C81.39751962 5.78607007 108.93370321 11.92075371 136.25085068 18.2353096 C138.80297343 18.82473447 141.35570711 19.41144772 143.90859985 19.99752808 C246.15054134 43.48461548 347.05085937 71.96859262 665.125 199.4375 C666.37185219 200.0181853 667.61876191 200.59874707 668.86572266 201.17919922 C686.1547962 209.23148398 703.35923492 217.44905239 720.5 225.8125 C721.33733673 226.22089111 722.17467346 226.62928223 723.03738403 227.05004883 C732.30550062 231.57369768 741.55434484 236.13503282 750.78125 240.7421875 C751.58291595 241.14214935 752.38458191 241.54211121 753.21054077 241.95419312 C761.92036818 246.31348327 770.53240141 250.85237386 779.125 255.4375 C780.60661621 256.22664795 780.60661621 256.22664795 782.11816406 257.03173828 C796.55225634 264.72888358 810.87865785 272.59180908 825.08349609 280.70410156 C828.31817696 282.54759443 831.55914772 284.37970054 834.80078125 286.2109375 C850.32285612 295.00100559 865.62793972 304.10258979 880.83544922 313.42529297 C883.958925 315.33591249 887.08901559 317.23501505 890.22265625 319.12890625 C913.37309277 333.12576289 935.95561516 347.90486652 958.42553711 362.9609375 C961.82502621 365.23817367 965.23030265 367.50657691 968.63671875 369.7734375 C973.04999366 372.71438081 977.44548404 375.67832544 981.8125 378.6875 C982.47910645 379.14656738 983.14571289 379.60563477 983.83251953 380.07861328 C1008.69697632 397.24071443 1033.25738879 414.91154046 1057.125 433.4375 C1059.1869331 435.02157152 1061.24944859 436.60488522 1063.3125 438.1875 C1065.58476937 439.93564045 1067.85513523 441.68623878 1070.125 443.4375 C1070.80723633 443.96359863 1071.48947266 444.48969727 1072.19238281 445.03173828 C1082.39312971 452.90627829 1092.46997134 460.91257399 1102.44580078 469.06982422 C1104.63791359 470.85525835 1106.84865396 472.61661638 1109.0625 474.375 C1119.61580011 482.79990345 1130.0107466 491.41875309 1140.23071289 500.24462891 C1143.71102072 503.24501584 1147.23721916 506.17496767 1150.8125 509.0625 C1155.55477487 512.91211137 1160.07428961 516.96462671 1164.5703125 521.09765625 C1167.37384722 523.6654197 1170.22844875 526.16646875 1173.09765625 528.66015625 C1176.32901478 531.49304282 1179.50968081 534.38193867 1182.69921875 537.26171875 C1184.76202788 539.11193563 1186.8421237 540.93694809 1188.9375 542.75 C1193.63999912 546.84694591 1198.19912203 551.09730349 1202.7734375 555.3359375 C1205.83709609 558.17461141 1208.91671313 560.99515701 1212 563.8125 C1222.27498566 573.22552472 1232.50442767 582.65254753 1242.24609375 592.62109375 C1244.32747135 594.70794334 1246.49844136 596.63986959 1248.73828125 598.55517578 C1253.4189553 602.6357489 1257.80755837 606.97601061 1262.19140625 611.37109375 C1263.02913071 612.20786148 1263.86685516 613.04462921 1264.72996521 613.90675354 C1266.49006935 615.66618104 1268.24892677 617.42685653 1270.0065918 619.1887207 C1272.67970972 621.86719411 1275.35812251 624.54028873 1278.03710938 627.21289062 C1279.75552903 628.93197115 1281.47363842 630.65136189 1283.19140625 632.37109375 C1283.98325821 633.16092148 1284.77511017 633.95074921 1285.59095764 634.76451111 C1289.73790154 638.92878111 1293.73107503 643.16434589 1297.54466248 647.63697815 C1300.40686244 650.89796101 1303.52868235 653.90103947 1306.625 656.9375 C1311.06686397 661.33666933 1315.43936369 665.72533329 1319.47265625 670.5078125 C1321.54058631 672.92284193 1323.71107434 675.23315725 1325.875 677.5625 C1331.65510764 683.91713641 1336.93171837 690.59882222 1342.125 697.4375 C1342.94556885 698.51330322 1342.94556885 698.51330322 1343.78271484 699.61083984 C1374.11894508 739.54226293 1396.70241325 784.76979368 1406.375 834.1875 C1406.52614258 834.95328369 1406.67728516 835.71906738 1406.83300781 836.50805664 C1409.80444121 852.65809902 1410.49876496 868.67873801 1410.4375 885.0625 C1410.43567719 886.07596497 1410.43385437 887.08942993 1410.43197632 888.13360596 C1410.38661981 903.11898296 1409.90255556 917.67490153 1407.125 932.4375 C1406.95871094 933.38496094 1406.79242187 934.33242188 1406.62109375 935.30859375 C1392.48460659 1014.99649545 1345.95244446 1085.6509219 1291.43554688 1143.89160156 C1289.30876062 1146.16610432 1287.19095135 1148.44835435 1285.08105469 1150.73852539 C1274.45688396 1162.22328216 1263.4252022 1173.29192889 1252.35229492 1184.34057617 C1249.6943766 1186.99273875 1247.04105727 1189.64945038 1244.38898563 1192.30745792 C1242.31199153 1194.38808578 1240.23259707 1196.46630164 1238.15249443 1198.54382133 C1237.17311042 1199.52254693 1236.19444443 1200.50199166 1235.2165699 1201.48222542 C1230.22098249 1206.48724578 1225.19606846 1211.38760914 1219.80979919 1215.97288513 C1217.10739036 1218.32211949 1214.62299096 1220.87496806 1212.125 1223.4375 C1208.19109416 1227.42588006 1204.18567595 1231.22913058 1199.91796875 1234.86328125 C1198.07070371 1236.4851719 1196.34743286 1238.18410205 1194.625 1239.9375 C1191.70369212 1242.90465801 1188.64508327 1245.63808971 1185.4921875 1248.35546875 C1182.4877804 1250.99795882 1179.55750691 1253.71574477 1176.625 1256.4375 C1172.49304153 1260.26881333 1168.33460305 1264.05386285 1164.0703125 1267.73828125 C1161.7883471 1269.73156428 1159.55271426 1271.77243027 1157.3125 1273.8125 C1153.84969918 1276.94172827 1150.31820997 1279.94250349 1146.6875 1282.875 C1142.88412497 1285.95086588 1139.22417348 1289.12503166 1135.625 1292.4375 C1131.23121452 1296.47704818 1126.70661176 1300.28429619 1122.0625 1304.03125 C1118.76146697 1306.7352877 1115.53734787 1309.51861232 1112.3125 1312.3125 C1107.09372252 1316.82281057 1101.75526339 1321.13588923 1096.30541992 1325.36279297 C1092.32668081 1328.46014822 1088.45441899 1331.6577973 1084.625 1334.9375 C1078.57780392 1340.10619976 1072.36892859 1345.0392043 1066.08496094 1349.91601562 C1063.95273508 1351.57122633 1061.8238694 1353.23069911 1059.6953125 1354.890625 C1051.50012858 1361.27807331 1043.2944174 1367.65182876 1035.04394531 1373.96777344 C1033.61288034 1375.06383083 1032.18268065 1376.16101815 1030.75292969 1377.25878906 C1020.59257541 1385.05715622 1010.40387722 1392.77725009 999.93408203 1400.15527344 C996.39681883 1402.6623863 992.88795084 1405.20899555 989.375 1407.75 C988.61606445 1408.29809326 987.85712891 1408.84618652 987.07519531 1409.41088867 C983.25995978 1412.16682865 979.44887268 1414.92825813 975.64453125 1417.69921875 C968.2928355 1423.04607157 960.90249365 1428.32149561 953.390625 1433.44140625 C952.5782991 1433.99603043 951.76597321 1434.5506546 950.92903137 1435.12208557 C901.09706425 1469.11784257 901.09706425 1469.11784257 880.51904297 1481.93798828 C877.03897954 1484.11773023 873.58432721 1486.33664843 870.12670898 1488.55175781 C846.44140646 1503.70732536 822.34908393 1518.1658281 798.125 1532.4375 C797.01817871 1533.09024902 795.91135742 1533.74299805 794.77099609 1534.41552734 C779.67554765 1543.30723798 764.44282713 1551.93540329 749.125 1560.4375 C747.43745605 1561.37698486 747.43745605 1561.37698486 745.71582031 1562.33544922 C696.12894205 1589.93228869 645.73313787 1616.59980505 594.12109375 1640.21875 C589.15621821 1642.49163822 584.21451061 1644.80775408 579.28515625 1647.15625 C557.89600825 1657.33764316 536.2933646 1666.97043374 514.55603027 1676.38409424 C512.23871903 1677.38822366 509.92241159 1678.39462851 507.60644531 1679.40185547 C419.68267972 1717.61740537 329.52613283 1753.42684149 104.3125 1808.25 C103.57381683 1808.34954987 102.83513367 1808.44909973 102.07406616 1808.55166626 C79.69271243 1811.52979607 57.40126502 1812.79148928 34.82495117 1812.75317383 C30.95788238 1812.75001664 27.09158445 1812.77358581 23.22460938 1812.79882812 C0.11302094 1812.85828163 -23.0113826 1811.38858715 -45.6875 1806.6875 C-46.96262451 1806.43000977 -48.23774902 1806.17251953 -49.55151367 1805.90722656 C-92.37439624 1797.10410748 -133.99971942 1780.11355639 -168.875 1753.4375 C-169.46216797 1752.99164551 -170.04933594 1752.54579102 -170.65429688 1752.08642578 C-177.57545699 1746.81061083 -184.25795192 1741.36302647 -190.6640625 1735.46484375 C-192.61482911 1733.6760666 -194.60480395 1731.95906881 -196.625 1730.25 C-200.55367452 1726.82541203 -204.24578854 1723.1756901 -207.9375 1719.5 C-208.8042334 1718.64015503 -208.8042334 1718.64015503 -209.68847656 1717.76293945 C-213.95023205 1713.48607565 -217.95315517 1709.02672805 -221.875 1704.4375 C-222.42599365 1703.79321045 -222.9769873 1703.1489209 -223.54467773 1702.48510742 C-232.27038453 1692.20146862 -240.28231487 1681.57867515 -247.875 1670.4375 C-248.71207582 1669.22775125 -249.54930925 1668.01811155 -250.38671875 1666.80859375 C-293.58027486 1603.84291212 -319.13996145 1529.60635645 -338.875 1456.4375 C-339.13390015 1455.48012939 -339.39280029 1454.52275879 -339.6595459 1453.53637695 C-352.87951718 1404.57994221 -364.19316882 1355.21208137 -373.875 1305.4375 C-374.15926849 1303.97938904 -374.15926849 1303.97938904 -374.44927979 1302.49182129 C-392.04544373 1212.0204618 -403.76433326 1120.30685742 -410.65496826 1014.01446533 C-410.87173332 1010.490605 -411.10093269 1006.96773828 -411.33251953 1003.44482422 C-413.96941432 962.56015451 -414.19090681 921.64249884 -414.240623 880.68855703 C-414.24598575 876.33778073 -414.25503508 871.98703746 -414.26772153 867.63627648 C-414.53058304 776.20421248 -408.23748865 685.11599632 -354.54956055 383.10186768 C-353.88538593 380.47852218 -353.22469644 377.85431777 -352.56445312 375.22998047 C-336.24674896 310.53277766 -318.92950566 243.71356008 -289.875 183.4375 C-289.5130957 182.68194824 -289.15119141 181.92639648 -288.77832031 181.14794922 C-286.558082 176.53431524 -284.25054559 171.97294532 -281.875 167.4375 C-281.52711426 166.76686523 -281.17922852 166.09623047 -280.82080078 165.40527344 C-271.04271341 146.7012575 -259.26338882 128.76154883 -245.875 112.4375 C-245.44413086 111.91188477 -245.01326172 111.38626953 -244.56933594 110.84472656 C-232.44160234 96.11881567 -219.62979754 81.56014903 -204.6640625 69.671875 C-202.79670712 68.17589842 -200.95776354 66.64378822 -199.1484375 65.078125 C-144.80243223 18.06808187 -70.38838892 -0.37381493 0 0 Z " fill="#FDFDFD" transform="translate(413.875,-0.43749999999999994)"/>
<path d="M0 0 C1.84454269 0.00456207 1.84454269 0.00456207 3.72634888 0.00921631 C19.06304423 0.06491005 34.30669979 0.42235985 49.5625 2.0625 C50.86880371 2.20244385 52.17510742 2.3423877 53.52099609 2.48657227 C81.39751962 5.78607007 108.93370321 11.92075371 136.25085068 18.2353096 C138.80297343 18.82473447 141.35570711 19.41144772 143.90859985 19.99752808 C246.15054134 43.48461548 347.05085937 71.96859262 665.125 199.4375 C666.37185219 200.0181853 667.61876191 200.59874707 668.86572266 201.17919922 C686.1547962 209.23148398 703.35923492 217.44905239 720.5 225.8125 C721.33733673 226.22089111 722.17467346 226.62928223 723.03738403 227.05004883 C732.30550062 231.57369768 741.55434484 236.13503282 750.78125 240.7421875 C751.58291595 241.14214935 752.38458191 241.54211121 753.21054077 241.95419312 C761.92036818 246.31348327 770.53240141 250.85237386 779.125 255.4375 C780.60661621 256.22664795 780.60661621 256.22664795 782.11816406 257.03173828 C796.55225634 264.72888358 810.87865785 272.59180908 825.08349609 280.70410156 C828.31817696 282.54759443 831.55914772 284.37970054 834.80078125 286.2109375 C850.32285612 295.00100559 865.62793972 304.10258979 880.83544922 313.42529297 C883.958925 315.33591249 887.08901559 317.23501505 890.22265625 319.12890625 C913.37309277 333.12576289 935.95561516 347.90486652 958.42553711 362.9609375 C961.82502621 365.23817367 965.23030265 367.50657691 968.63671875 369.7734375 C973.04999366 372.71438081 977.44548404 375.67832544 981.8125 378.6875 C982.47910645 379.14656738 983.14571289 379.60563477 983.83251953 380.07861328 C1008.69697632 397.24071443 1033.25738879 414.91154046 1057.125 433.4375 C1059.1869331 435.02157152 1061.24944859 436.60488522 1063.3125 438.1875 C1065.58476937 439.93564045 1067.85513523 441.68623878 1070.125 443.4375 C1070.80723633 443.96359863 1071.48947266 444.48969727 1072.19238281 445.03173828 C1082.39312971 452.90627829 1092.46997134 460.91257399 1102.44580078 469.06982422 C1104.63791359 470.85525835 1106.84865396 472.61661638 1109.0625 474.375 C1119.61580011 482.79990345 1130.0107466 491.41875309 1140.23071289 500.24462891 C1143.71102072 503.24501584 1147.23721916 506.17496767 1150.8125 509.0625 C1155.55477487 512.91211137 1160.07428961 516.96462671 1164.5703125 521.09765625 C1167.37384722 523.6654197 1170.22844875 526.16646875 1173.09765625 528.66015625 C1176.32901478 531.49304282 1179.50968081 534.38193867 1182.69921875 537.26171875 C1184.76202788 539.11193563 1186.8421237 540.93694809 1188.9375 542.75 C1193.63999912 546.84694591 1198.19912203 551.09730349 1202.7734375 555.3359375 C1205.83709609 558.17461141 1208.91671313 560.99515701 1212 563.8125 C1222.27498566 573.22552472 1232.50442767 582.65254753 1242.24609375 592.62109375 C1244.32747135 594.70794334 1246.49844136 596.63986959 1248.73828125 598.55517578 C1253.4189553 602.6357489 1257.80755837 606.97601061 1262.19140625 611.37109375 C1263.02913071 612.20786148 1263.86685516 613.04462921 1264.72996521 613.90675354 C1266.49006935 615.66618104 1268.24892677 617.42685653 1270.0065918 619.1887207 C1272.67970972 621.86719411 1275.35812251 624.54028873 1278.03710938 627.21289062 C1279.75552903 628.93197115 1281.47363842 630.65136189 1283.19140625 632.37109375 C1283.98325821 633.16092148 1284.77511017 633.95074921 1285.59095764 634.76451111 C1289.73790154 638.92878111 1293.73107503 643.16434589 1297.54466248 647.63697815 C1300.40686244 650.89796101 1303.52868235 653.90103947 1306.625 656.9375 C1311.06686397 661.33666933 1315.43936369 665.72533329 1319.47265625 670.5078125 C1321.54058631 672.92284193 1323.71107434 675.23315725 1325.875 677.5625 C1331.65510764 683.91713641 1336.93171837 690.59882222 1342.125 697.4375 C1342.94556885 698.51330322 1342.94556885 698.51330322 1343.78271484 699.61083984 C1374.11894508 739.54226293 1396.70241325 784.76979368 1406.375 834.1875 C1406.52614258 834.95328369 1406.67728516 835.71906738 1406.83300781 836.50805664 C1409.80444121 852.65809902 1410.49876496 868.67873801 1410.4375 885.0625 C1410.43567719 886.07596497 1410.43385437 887.08942993 1410.43197632 888.13360596 C1410.38661981 903.11898296 1409.90255556 917.67490153 1407.125 932.4375 C1406.95871094 933.38496094 1406.79242187 934.33242188 1406.62109375 935.30859375 C1392.48460659 1014.99649545 1345.95244446 1085.6509219 1291.43554688 1143.89160156 C1289.30876062 1146.16610432 1287.19095135 1148.44835435 1285.08105469 1150.73852539 C1274.45688396 1162.22328216 1263.4252022 1173.29192889 1252.35229492 1184.34057617 C1249.6943766 1186.99273875 1247.04105727 1189.64945038 1244.38898563 1192.30745792 C1242.31199153 1194.38808578 1240.23259707 1196.46630164 1238.15249443 1198.54382133 C1237.17311042 1199.52254693 1236.19444443 1200.50199166 1235.2165699 1201.48222542 C1230.22098249 1206.48724578 1225.19606846 1211.38760914 1219.80979919 1215.97288513 C1217.10739036 1218.32211949 1214.62299096 1220.87496806 1212.125 1223.4375 C1208.19109416 1227.42588006 1204.18567595 1231.22913058 1199.91796875 1234.86328125 C1198.07070371 1236.4851719 1196.34743286 1238.18410205 1194.625 1239.9375 C1191.70369212 1242.90465801 1188.64508327 1245.63808971 1185.4921875 1248.35546875 C1182.4877804 1250.99795882 1179.55750691 1253.71574477 1176.625 1256.4375 C1172.49304153 1260.26881333 1168.33460305 1264.05386285 1164.0703125 1267.73828125 C1161.7883471 1269.73156428 1159.55271426 1271.77243027 1157.3125 1273.8125 C1153.84969918 1276.94172827 1150.31820997 1279.94250349 1146.6875 1282.875 C1142.88412497 1285.95086588 1139.22417348 1289.12503166 1135.625 1292.4375 C1131.23121452 1296.47704818 1126.70661176 1300.28429619 1122.0625 1304.03125 C1118.76146697 1306.7352877 1115.53734787 1309.51861232 1112.3125 1312.3125 C1107.09372252 1316.82281057 1101.75526339 1321.13588923 1096.30541992 1325.36279297 C1092.32668081 1328.46014822 1088.45441899 1331.6577973 1084.625 1334.9375 C1078.57780392 1340.10619976 1072.36892859 1345.0392043 1066.08496094 1349.91601562 C1063.95273508 1351.57122633 1061.8238694 1353.23069911 1059.6953125 1354.890625 C1051.50012858 1361.27807331 1043.2944174 1367.65182876 1035.04394531 1373.96777344 C1033.61288034 1375.06383083 1032.18268065 1376.16101815 1030.75292969 1377.25878906 C1020.59257541 1385.05715622 1010.40387722 1392.77725009 999.93408203 1400.15527344 C996.39681883 1402.6623863 992.88795084 1405.20899555 989.375 1407.75 C988.61606445 1408.29809326 987.85712891 1408.84618652 987.07519531 1409.41088867 C983.25995978 1412.16682865 979.44887268 1414.92825813 975.64453125 1417.69921875 C968.2928355 1423.04607157 960.90249365 1428.32149561 953.390625 1433.44140625 C952.5782991 1433.99603043 951.76597321 1434.5506546 950.92903137 1435.12208557 C901.09706425 1469.11784257 901.09706425 1469.11784257 880.51904297 1481.93798828 C877.03897954 1484.11773023 873.58432721 1486.33664843 870.12670898 1488.55175781 C846.44140646 1503.70732536 822.34908393 1518.1658281 798.125 1532.4375 C797.01817871 1533.09024902 795.91135742 1533.74299805 794.77099609 1534.41552734 C779.67554765 1543.30723798 764.44282713 1551.93540329 749.125 1560.4375 C747.43745605 1561.37698486 747.43745605 1561.37698486 745.71582031 1562.33544922 C696.12894205 1589.93228869 645.73313787 1616.59980505 594.12109375 1640.21875 C589.15621821 1642.49163822 584.21451061 1644.80775408 579.28515625 1647.15625 C557.89600825 1657.33764316 536.2933646 1666.97043374 514.55603027 1676.38409424 C512.23871903 1677.38822366 509.92241159 1678.39462851 507.60644531 1679.40185547 C419.68267972 1717.61740537 329.52613283 1753.42684149 104.3125 1808.25 C103.57381683 1808.34954987 102.83513367 1808.44909973 102.07406616 1808.55166626 C79.69271243 1811.52979607 57.40126502 1812.79148928 34.82495117 1812.75317383 C30.95788238 1812.75001664 27.09158445 1812.77358581 23.22460938 1812.79882812 C0.11302094 1812.85828163 -23.0113826 1811.38858715 -45.6875 1806.6875 C-46.96262451 1806.43000977 -48.23774902 1806.17251953 -49.55151367 1805.90722656 C-92.37439624 1797.10410748 -133.99971942 1780.11355639 -168.875 1753.4375 C-169.46216797 1752.99164551 -170.04933594 1752.54579102 -170.65429688 1752.08642578 C-177.57545699 1746.81061083 -184.25795192 1741.36302647 -190.6640625 1735.46484375 C-192.61482911 1733.6760666 -194.60480395 1731.95906881 -196.625 1730.25 C-200.55367452 1726.82541203 -204.24578854 1723.1756901 -207.9375 1719.5 C-208.8042334 1718.64015503 -208.8042334 1718.64015503 -209.68847656 1717.76293945 C-213.95023205 1713.48607565 -217.95315517 1709.02672805 -221.875 1704.4375 C-222.42599365 1703.79321045 -222.9769873 1703.1489209 -223.54467773 1702.48510742 C-232.27038453 1692.20146862 -240.28231487 1681.57867515 -247.875 1670.4375 C-248.71207582 1669.22775125 -249.54930925 1668.01811155 -250.38671875 1666.80859375 C-293.58027486 1603.84291212 -319.13996145 1529.60635645 -338.875 1456.4375 C-339.13390015 1455.48012939 -339.39280029 1454.52275879 -339.6595459 1453.53637695 C-352.87951718 1404.57994221 -364.19316882 1355.21208137 -373.875 1305.4375 C-374.15926849 1303.97938904 -374.15926849 1303.97938904 -374.44927979 1302.49182129 C-392.04544373 1212.0204618 -403.76433326 1120.30685742 -410.65496826 1014.01446533 C-410.87173332 1010.490605 -411.10093269 1006.96773828 -411.33251953 1003.44482422 C-413.96941432 962.56015451 -414.19090681 921.64249884 -414.240623 880.68855703 C-414.24598575 876.33778073 -414.25503508 871.98703746 -414.26772153 867.63627648 C-414.53058304 776.20421248 -408.23748865 685.11599632 -354.54956055 383.10186768 C-353.88538593 380.47852218 -353.22469644 377.85431777 -352.56445312 375.22998047 C-336.24674896 310.53277766 -318.92950566 243.71356008 -289.875 183.4375 C-289.5130957 182.68194824 -289.15119141 181.92639648 -288.77832031 181.14794922 C-286.558082 176.53431524 -284.25054559 171.97294532 -281.875 167.4375 C-281.52711426 166.76686523 -281.17922852 166.09623047 -280.82080078 165.40527344 C-271.04271341 146.7012575 -259.26338882 128.76154883 -245.875 112.4375 C-245.44413086 111.91188477 -245.01326172 111.38626953 -244.56933594 110.84472656 C-232.44160234 96.11881567 -219.62979754 81.56014903 -204.6640625 69.671875 C-202.79670712 68.17589842 -200.95776354 66.64378822 -199.1484375 65.078125 C-144.80243223 18.06808187 -70.38838892 -0.37381493 0 0 Z M-166.24316406 131.83642578 C-168.02116861 133.58091318 -169.81935341 135.30331162 -171.6171875 137.02734375 C-179.81751819 144.97247957 -187.11062336 153.24662876 -193.875 162.4375 C-194.49834229 163.26967041 -194.49834229 163.26967041 -195.13427734 164.11865234 C-253.01363973 241.49422101 -274.58256631 350.31523183 -324.50579834 605.71112061 C-324.8527388 608.27311159 -325.20547326 610.83421257 -325.56103516 613.39501953 C-334.28502997 676.32865806 -339.2196741 739.82682777 -341.78643799 803.29589844 C-341.86948949 805.30424508 -341.95963925 807.31229464 -342.05029297 809.3203125 C-345.39674573 884.15374867 -342.01073764 959.34166887 -337.09771729 1034.02276611 C-336.90249079 1037.01600725 -336.7134449 1040.00950865 -336.52880859 1043.00341797 C-333.205671 1096.60513091 -326.51119921 1150.29966913 -318.875 1203.4375 C-318.66710846 1204.88600342 -318.66710846 1204.88600342 -318.45501709 1206.36376953 C-314.48142618 1233.92327446 -309.64977793 1261.29224001 -304.37539673 1288.63085938 C-303.3963214 1293.70569294 -302.43555089 1298.78271799 -301.5078125 1303.8671875 C-298.43721054 1320.59466953 -294.60004336 1337.135666 -290.6975708 1353.68492126 C-289.50481401 1358.74402849 -288.32734677 1363.80628029 -287.16523743 1368.87251282 C-270.02153379 1443.5158583 -249.29776973 1517.75987649 -214.875 1586.4375 C-214.18277344 1587.82582031 -214.18277344 1587.82582031 -213.4765625 1589.2421875 C-198.52397849 1619.05673379 -178.97313451 1646.40009876 -155.875 1670.4375 C-155.40852051 1670.92589355 -154.94204102 1671.41428711 -154.46142578 1671.91748047 C-139.65820432 1687.34246832 -122.41774666 1699.90140111 -103.875 1710.4375 C-103.29878906 1710.77346191 -102.72257813 1711.10942383 -102.12890625 1711.45556641 C-79.37391228 1724.68416409 -53.45840356 1732.55056876 -27.6875 1737.25 C-26.62120361 1737.4449707 -25.55490723 1737.63994141 -24.45629883 1737.84082031 C-7.13501311 1740.79255793 10.26318472 1741.84998159 27.8125 1741.8125 C29.21091125 1741.81218277 29.21091125 1741.81218277 30.63757324 1741.81185913 C51.61748146 1741.76515743 72.31677564 1740.013388 93.125 1737.4375 C93.82423584 1737.35262329 94.52347168 1737.26774658 95.24389648 1737.18029785 C194.26645255 1725.08635262 291.47746011 1688.66573977 569.125 1572.4375 C570.08880585 1571.97751617 570.08880585 1571.97751617 571.07208252 1571.50823975 C588.97560184 1562.96072741 606.76160246 1554.17581538 624.51855469 1545.32833862 C626.67305073 1544.25510274 628.82813803 1543.18305276 630.98388672 1542.11233521 C643.92611858 1535.67974993 656.70812982 1529.02336746 669.36694336 1522.04931641 C674.71662319 1519.10261994 680.12598319 1516.28257386 685.5625 1513.5 C695.21010326 1508.51023053 704.672745 1503.23819509 714.10546875 1497.85546875 C719.45523233 1494.80566972 724.83908046 1491.82071448 730.23071289 1488.84570312 C742.30486404 1482.18057385 754.2561553 1475.34847226 766.08544922 1468.25830078 C768.86807273 1466.59140872 771.65382573 1464.92991752 774.44061279 1463.27000427 C790.79609514 1453.52486049 807.02358405 1443.59853114 823.125 1433.4375 C824.8279502 1432.36690941 826.53106951 1431.29658774 828.234375 1430.2265625 C829.84391345 1429.21380139 831.45329732 1428.20079455 833.0625 1427.1875 C833.73434326 1426.76484863 834.40618652 1426.34219727 835.09838867 1425.90673828 C848.92679151 1417.17214507 862.58803309 1408.18382765 876.19116211 1399.10351562 C878.68814159 1397.43707182 881.18676363 1395.77311254 883.68554688 1394.109375 C896.72974076 1385.41522349 909.70598982 1376.62202399 922.5 1367.5625 C923.19295166 1367.07257568 923.88590332 1366.58265137 924.59985352 1366.07788086 C931.29830998 1361.3321082 937.95475247 1356.52867802 944.6015625 1351.7109375 C947.56866447 1349.56058618 950.54250504 1347.42019684 953.5234375 1345.2890625 C964.38318471 1337.51334862 975.032867 1329.48455755 985.62792969 1321.35253906 C987.94943461 1319.57214362 990.27451277 1317.79657651 992.6015625 1316.0234375 C1006.32717517 1305.56222674 1020.00922277 1295.05231424 1033.36523438 1284.12109375 C1037.59327481 1280.66447047 1041.87195169 1277.28389146 1046.1875 1273.9375 C1051.86794028 1269.51991946 1057.31766938 1264.87275641 1062.73071289 1260.1328125 C1066.31092029 1256.99972308 1069.92532785 1253.9301237 1073.625 1250.9375 C1079.2951843 1246.34255065 1084.79138025 1241.55950853 1090.29296875 1236.765625 C1092.76236458 1234.61528385 1095.24264334 1232.47920081 1097.73828125 1230.359375 C1104.72313361 1224.42616155 1111.5356716 1218.35149116 1118.2421875 1212.10546875 C1120.50735593 1210.00911369 1122.79014567 1207.95485322 1125.125 1205.9375 C1129.77569533 1201.91210824 1134.26631489 1197.71533756 1138.77734375 1193.53515625 C1141.81799507 1190.71773599 1144.87607729 1187.91984985 1147.9375 1185.125 C1159.25398793 1174.75579005 1170.43115125 1164.28654099 1181.19018555 1153.33544922 C1184.3863968 1150.09821582 1187.61083477 1146.96562482 1191.05859375 1143.99609375 C1195.64826488 1140.04079475 1199.91579068 1135.7934483 1204.1875 1131.5 C1204.95126953 1130.74009766 1205.71503906 1129.98019531 1206.50195312 1129.19726562 C1209.98219018 1125.71107436 1213.37972989 1122.20236674 1216.58984375 1118.46484375 C1221.43894948 1112.8330166 1226.80460795 1107.71333609 1232.09765625 1102.50390625 C1236.99816539 1097.65059303 1241.63763377 1092.67276061 1246.125 1087.4375 C1247.57945517 1085.82981627 1249.03720895 1084.22510285 1250.5 1082.625 C1255.2276385 1077.37295117 1259.71954022 1071.96083513 1264.125 1066.4375 C1264.62628418 1065.81407715 1265.12756836 1065.1906543 1265.64404297 1064.54833984 C1299.91260699 1021.81764313 1327.72205211 972.96724211 1337.125 918.4375 C1337.35058594 917.138125 1337.57617188 915.83875 1337.80859375 914.5 C1346.5177833 853.95611681 1325.48144316 795.03260211 1289.53125 746.94921875 C1287.10552782 743.74361735 1284.62479329 740.58568991 1282.125 737.4375 C1281.38636719 736.50421875 1280.64773438 735.5709375 1279.88671875 734.609375 C1272.46475032 725.38135031 1264.50055045 716.69594125 1256.05348206 708.3981781 C1254.35975801 706.6761773 1252.80245216 704.91828648 1251.24975586 703.07055664 C1245.61604403 696.59410626 1239.45073455 690.61959712 1233.37890625 684.55859375 C1232.04029513 683.21930764 1230.70183237 681.87987324 1229.36351013 680.54029846 C1226.5687495 677.74407004 1223.77220514 674.94964141 1220.97436523 672.15649414 C1217.40599423 668.59381983 1213.84213236 665.02667403 1210.279603 661.45815945 C1207.51975402 658.69468 1204.75750678 655.93360758 1201.9945507 653.17323494 C1200.68023429 651.85958093 1199.36664731 650.54519667 1198.05383492 649.2300396 C1189.08546102 640.21482429 1189.08546102 640.21482429 1179.62815857 631.72047424 C1176.76818739 629.2794348 1174.20920832 626.53968396 1171.59375 623.84375 C1168.90020304 621.21839411 1166.08821798 618.77094566 1163.24804688 616.30664062 C1159.10672564 612.6606016 1155.13021543 608.83697165 1151.125 605.04296875 C1147.14121231 601.28482528 1143.091461 597.62615793 1138.95556641 594.03613281 C1136.53415617 591.92151636 1134.17379549 589.74385229 1131.8125 587.5625 C1127.29596163 583.43843324 1122.63366984 579.55813135 1117.875 575.71875 C1115.04400422 573.37031032 1112.33116402 570.92840098 1109.625 568.4375 C1105.23121452 564.39795182 1100.70661176 560.59070381 1096.0625 556.84375 C1092.76146697 554.1397123 1089.53734787 551.35638768 1086.3125 548.5625 C1081.09452132 544.0528798 1075.75738911 539.73972134 1070.30761719 535.5144043 C1066.30421842 532.39872056 1062.41323631 529.17695707 1058.5625 525.875 C1052.84755381 520.98629039 1046.93903489 516.38392788 1040.95166016 511.83447266 C1038.24259461 509.76266391 1035.55605636 507.66232908 1032.86791992 505.56347656 C1016.89642355 493.09503507 1000.81499847 480.80328955 984.33105469 469.01855469 C981.32308265 466.86277482 978.32741379 464.69018761 975.33105469 462.51831055 C939.46971539 436.54083801 902.64490288 411.95056661 865.125 388.4375 C864.31611328 387.92993164 863.50722656 387.42236328 862.67382812 386.89941406 C793.48788428 343.55565082 721.20608622 304.03194545 646.89550781 270.16455078 C642.64692243 268.22356479 638.41362859 266.25001736 634.1796875 264.27734375 C611.46661548 253.70603433 588.61969429 243.4712878 565.62786865 233.52093506 C563.18958657 232.46545806 560.7522282 231.40787052 558.31494141 230.35009766 C497.24187986 203.88008272 435.0200692 180.19887778 372.125 158.4375 C371.24853821 158.13410706 370.37207642 157.83071411 369.46905518 157.51812744 C287.60302462 129.23318808 203.77446868 106.60007419 119.2288208 87.90435791 C117.00835175 87.41161464 114.78900423 86.91404261 112.56982422 86.41552734 C75.48505569 78.09383704 38.57818733 71.21509311 0.4375 71.1875 C-0.41127716 71.18682526 -1.26005432 71.18615051 -2.134552 71.18545532 C-62.26936226 71.26075138 -122.53309322 88.91230889 -166.24316406 131.83642578 Z " fill="#393185" transform="translate(413.875,-0.43749999999999994)"/>
<path d="M0 0 C6.21365424 5.42421839 11.96862544 11.41192253 16.55078125 18.28515625 C16.88078125 8.38515625 17.21078125 -1.51484375 17.55078125 -11.71484375 C40.32078125 -11.71484375 63.09078125 -11.71484375 86.55078125 -11.71484375 C86.61866771 15.05957612 86.67386141 41.83392561 86.70621777 68.60840988 C86.72164493 81.0420313 86.74265455 93.4755952 86.77709961 105.90917969 C86.80712962 116.75429744 86.82638637 127.5993735 86.83304673 138.44453168 C86.83693607 144.17967472 86.84598875 149.91469856 86.86797142 155.64980316 C86.88855212 161.06374666 86.8945721 166.47752348 86.89010429 171.89150238 C86.89091995 173.8633312 86.89675556 175.83516644 86.90839767 177.80696106 C86.99943011 194.04096714 86.49057467 211.1259842 80.23828125 226.34765625 C79.93196777 227.13019775 79.6256543 227.91273926 79.31005859 228.71899414 C67.09219546 259.23834308 43.97939236 277.64246551 14.55078125 290.28515625 C10.92242974 291.79441008 7.30778145 293.13505415 3.55078125 294.28515625 C2.71933594 294.54683594 1.88789062 294.80851562 1.03125 295.078125 C-15.43506046 299.71884483 -32.44551278 300.57168122 -49.44921875 300.59765625 C-50.18262482 300.60115082 -50.91603088 300.60464539 -51.67166138 300.60824585 C-64.90803036 300.64326417 -77.92203736 299.61318621 -90.76171875 296.16015625 C-91.55094727 295.94842773 -92.34017578 295.73669922 -93.15332031 295.51855469 C-116.66230365 288.8724763 -135.6605884 275.63555692 -153.44921875 259.28515625 C-151.85982449 255.35301324 -149.28579373 252.95495279 -146.26171875 250.03515625 C-143.05621841 246.9327699 -140.00758322 243.81881442 -137.09765625 240.4375 C-133.35596371 236.10954913 -129.34347565 232.10276044 -125.26171875 228.09765625 C-119.02939284 221.98797418 -119.02939284 221.98797418 -113.44921875 215.28515625 C-110.33445763 216.65865332 -107.78100729 218.49596412 -105.08642578 220.56005859 C-84.27965307 236.32204068 -60.10519806 243.54255854 -34.05566406 239.95556641 C-26.24315049 238.50638574 -18.97584357 235.82541699 -12.44921875 231.28515625 C-11.77632812 230.85203125 -11.1034375 230.41890625 -10.41015625 229.97265625 C-1.90621008 223.6685726 3.18197564 211.95709152 5.22412109 201.76171875 C5.86201874 196.92552014 5.75564222 192.0911039 5.67578125 187.22265625 C5.66675781 186.16626953 5.65773438 185.10988281 5.6484375 184.02148438 C5.62509795 181.44246372 5.592359 178.86393635 5.55078125 176.28515625 C5.1640625 176.80464844 4.77734375 177.32414063 4.37890625 177.859375 C3.29908956 179.30536715 2.21557415 180.74860258 1.12890625 182.18945312 C-0.07388672 183.78672646 -1.26438172 185.39326841 -2.44921875 187.00390625 C-9.33478853 194.85775928 -19.69633276 200.03020534 -29.44921875 203.28515625 C-30.59261719 203.67703125 -31.73601562 204.06890625 -32.9140625 204.47265625 C-53.82373192 210.68729484 -78.88190555 209.01353796 -98.44921875 199.28515625 C-99.3825 198.83140625 -100.31578125 198.37765625 -101.27734375 197.91015625 C-125.19626836 185.61663075 -140.62796392 163.97437605 -148.91796875 138.953125 C-149.37288801 137.50348105 -149.82101861 136.051686 -150.26171875 134.59765625 C-150.45677002 133.95779785 -150.65182129 133.31793945 -150.8527832 132.65869141 C-154.10700729 121.2064639 -154.76962124 109.76124128 -154.69921875 97.91015625 C-154.70695312 96.6159375 -154.7146875 95.32171875 -154.72265625 93.98828125 C-154.67168841 68.45339329 -147.8040388 43.91189388 -132.44921875 23.28515625 C-131.77246094 22.3621875 -131.09570312 21.43921875 -130.3984375 20.48828125 C-115.99927775 1.85097759 -94.306022 -11.04595571 -71.1171875 -15.203125 C-46.88044477 -18.29496506 -19.61809395 -16.11183328 0 0 Z " fill="#393185" transform="translate(1553.44921875,803.71484375)"/>
<path d="M0 0 C2.04888605 0.01071568 4.09689227 0.00003509 6.14575195 -0.01269531 C14.93923965 -0.02271368 23.44453669 0.73937637 32.11645508 2.26074219 C33.00872803 2.41639648 33.90100098 2.57205078 34.8203125 2.73242188 C59.70229697 7.38453617 82.93428389 17.10876634 105.60644531 28.09082031 C108.07855001 29.24307454 110.57480404 30.27271849 113.11645508 31.26074219 C111.44931207 37.15458307 108.60136924 42.31892295 105.74145508 47.69824219 C104.65536821 49.7593614 103.56943515 51.82056167 102.48364258 53.88183594 C101.64784668 55.46327393 101.64784668 55.46327393 100.79516602 57.07666016 C98.64489948 61.15516164 96.51611523 65.2446478 94.38842773 69.33496094 C89.3563106 79.0085079 84.27613361 88.6546348 79.11645508 98.26074219 C74.53764264 97.64789922 70.84125195 95.75298151 66.80395508 93.63574219 C46.65498626 83.37670116 24.10979688 72.85980626 1.11645508 72.94824219 C0.27856445 72.93212891 -0.55932617 72.91601562 -1.42260742 72.89941406 C-8.30301656 72.89408867 -14.89210684 73.86759172 -20.38354492 78.26074219 C-23.25798656 82.09333104 -23.19874126 85.61159625 -22.88354492 90.26074219 C-21.27928641 95.50132 -18.34201251 97.97448567 -13.82885742 100.76074219 C-4.51629601 105.50347903 5.70844061 108.18316913 15.74145508 110.94824219 C51.26882602 120.83106776 92.88142886 133.42427953 112.15014648 167.42578125 C122.76900987 187.59035355 123.65158533 216.57526075 117.11645508 238.26074219 C108.90010832 262.21528552 93.23622799 279.09162486 70.70629883 290.22167969 C20.73801909 313.36374568 -39.26891991 301.84987338 -88.81225586 283.81933594 C-99.80227388 279.69881359 -111.11360006 274.77403876 -120.88354492 268.26074219 C-119.46187944 263.66069232 -117.61421078 259.38594881 -115.49682617 255.07324219 C-114.99543625 254.04134514 -114.99543625 254.04134514 -114.48391724 252.98860168 C-113.39180629 250.7440837 -112.29411945 248.5023479 -111.19604492 246.26074219 C-110.43751251 244.70572107 -109.67913204 243.15062582 -108.92089844 241.59545898 C-101.6796726 226.76510548 -94.30673482 212.00072566 -86.88354492 197.26074219 C-82.19158056 198.0572547 -78.68441251 199.9153177 -74.63354492 202.32324219 C-50.15775532 216.4246827 -23.41413865 227.41856166 5.13232422 227.50097656 C7.17757041 227.51073558 9.22183206 227.54185212 11.2668457 227.57324219 C12.56944336 227.57839844 13.87204102 227.58355469 15.21411133 227.58886719 C16.98540405 227.60288574 16.98540405 227.60288574 18.79248047 227.6171875 C23.35317587 227.12812284 26.7370508 225.66347677 29.96411133 222.38183594 C31.33334592 219.86151599 31.54954929 218.1826014 31.55395508 215.32324219 C31.57329102 214.48921875 31.59262695 213.65519531 31.61254883 212.79589844 C30.93960423 209.35699259 29.48539552 207.83372383 27.11645508 205.26074219 C18.26856198 199.59784834 8.29590753 196.41456473 -1.69772339 193.43231201 C-4.00777925 192.74230225 -6.31238185 192.03618989 -8.61621094 191.32568359 C-11.66526733 190.3859219 -14.71551345 189.4502776 -17.76733398 188.51953125 C-47.28122173 179.50661176 -83.57562461 168.07503198 -99.55932617 139.23730469 C-101.15916696 135.95822655 -102.55049646 132.65646623 -103.88354492 129.26074219 C-104.29862305 128.28492188 -104.71370117 127.30910156 -105.14135742 126.30371094 C-111.17907254 109.52055178 -109.34380111 88.28510033 -104.88354492 71.26074219 C-104.70178711 70.40867187 -104.5200293 69.55660156 -104.33276367 68.67871094 C-101.11739416 55.48913396 -92.96490278 43.12001897 -83.88354492 33.26074219 C-83.34600586 32.64328125 -82.8084668 32.02582031 -82.25463867 31.38964844 C-61.80375306 9.19608084 -29.23622447 -0.18109395 0 0 Z " fill="#393185" transform="translate(237.883544921875,712.7392578125)"/>
<path d="M0 0 C16.01722138 14.77013845 21.42065908 36.9704289 22.42959976 57.99201584 C22.49370686 62.01883026 22.49827152 66.04083753 22.47705078 70.06787109 C22.47648499 71.59701022 22.47680649 73.12614988 22.47793579 74.6552887 C22.47850377 78.75974968 22.46684059 82.864091 22.45278788 86.96852446 C22.4401868 91.27528476 22.43910269 95.58204856 22.43673706 99.88882446 C22.43054961 108.02343203 22.41417626 116.1579851 22.39403808 124.2925688 C22.36738707 135.29958597 22.35668431 146.30661831 22.34503365 157.31365967 C22.32629334 174.62581384 22.28642958 191.93785307 22.25 209.25 C-4.15 209.25 -30.55 209.25 -57.75 209.25 C-57.78738281 199.75347656 -57.82476563 190.25695312 -57.86328125 180.47265625 C-57.89356109 174.45245942 -57.92458783 168.43228176 -57.95898438 162.41210938 C-58.0134279 152.85898589 -58.06484273 143.30591559 -58.09643555 133.75268555 C-58.11946074 126.79443307 -58.15290899 119.83632073 -58.19870156 112.87817949 C-58.22257308 109.19630817 -58.24134149 105.5145751 -58.24761391 101.83262825 C-58.25482412 97.71512328 -58.28531145 93.59809742 -58.31762695 89.48071289 C-58.31619186 88.26942215 -58.31475677 87.05813141 -58.3132782 85.81013489 C-58.41461904 76.6650393 -59.46543438 68.62451036 -65.96484375 61.7578125 C-71.48491854 57.09534233 -77.70216119 55.43621438 -84.859375 55.74609375 C-97.02965016 57.86766874 -106.79206417 66.82138984 -113.75 76.5625 C-116.9107715 81.28086323 -118.99340351 84.66377796 -119.0284729 90.4385376 C-119.03963638 91.48739136 -119.05079987 92.53624512 -119.06230164 93.61688232 C-119.06446182 94.7619928 -119.06662201 95.90710327 -119.06884766 97.08691406 C-119.07889328 98.29694092 -119.0889389 99.50696777 -119.09928894 100.75366211 C-119.12487714 104.06740655 -119.14173449 107.38097986 -119.15471697 110.69478321 C-119.17035297 114.15950706 -119.19714168 117.62414423 -119.2227478 121.08880615 C-119.26952732 127.64767747 -119.3062754 134.20656511 -119.33942068 140.76551795 C-119.38139828 148.9661342 -119.43676382 157.16665299 -119.4921875 165.3671875 C-119.59098931 179.99473822 -119.66953501 194.62231139 -119.75 209.25 C-145.82 209.25 -171.89 209.25 -198.75 209.25 C-198.75 136.98 -198.75 64.71 -198.75 -9.75 C-175.32 -9.75 -151.89 -9.75 -127.75 -9.75 C-127.42 0.48 -127.09 10.71 -126.75 21.25 C-124.44 18.28 -122.13 15.31 -119.75 12.25 C-92.1728386 -17.98688763 -32.13996097 -25.04600562 0 0 Z " fill="#393185" transform="translate(1349.75,801.75)"/>
<path d="M0 0 C4.82645628 4.09853173 7.69206556 7.74389178 11.5078125 13.0859375 C11.8378125 5.4959375 12.1678125 -2.0940625 12.5078125 -9.9140625 C29.9978125 -9.9140625 47.4878125 -9.9140625 65.5078125 -9.9140625 C65.57568572 11.20982389 65.63088497 32.33362118 65.66324902 53.45758915 C65.67867951 63.26709476 65.69969554 73.0765275 65.73413086 82.88598633 C65.76415063 91.44172656 65.78341521 99.99741399 65.79007798 108.55320543 C65.79396905 113.07815527 65.80303284 117.60295413 65.82500267 122.1278553 C65.84556717 126.3984542 65.85160657 130.66884184 65.84713554 134.93948555 C65.84795192 136.4957647 65.85379752 138.05205191 65.86542892 139.60828781 C66.03531323 163.53894305 59.54354288 185.80348837 42.453125 203.265625 C18.43812374 226.77068595 -14.4239767 231.59252669 -46.5390625 231.30078125 C-71.83790779 230.75243525 -97.72493355 221.22723215 -115.6328125 202.89453125 C-116.97707949 201.33982994 -118.24767441 199.72158327 -119.4921875 198.0859375 C-118.85152344 197.456875 -118.21085937 196.8278125 -117.55078125 196.1796875 C-111.71932489 190.42363702 -111.71932489 190.42363702 -106.2421875 184.3359375 C-100.73497432 177.88196369 -94.52438349 172.04283562 -88.4921875 166.0859375 C-84.83875629 167.40039952 -82.02742963 169.00869976 -78.9296875 171.3359375 C-63.39597595 182.35616649 -46.0291074 187.43454167 -27.1328125 184.578125 C-16.71345075 182.27740299 -8.61982232 177.99015685 -2.4921875 169.0859375 C-0.90657826 166.16247046 0.37500936 163.21054141 1.5078125 160.0859375 C1.87003906 159.209375 2.23226563 158.3328125 2.60546875 157.4296875 C3.80988262 152.96657809 3.72281861 148.8081727 3.6328125 144.2109375 C3.62378906 143.33179688 3.61476563 142.45265625 3.60546875 141.546875 C3.58205827 139.3931104 3.5461926 137.23948736 3.5078125 135.0859375 C3.12979492 135.62814941 2.75177734 136.17036133 2.36230469 136.72900391 C-6.39575914 149.13994439 -18.21945388 155.93652175 -33.14453125 158.76074219 C-52.60112418 161.45585261 -72.16402073 158.5767723 -88.24609375 146.80175781 C-106.2886612 132.24614046 -117.5381841 111.00127749 -120.20703125 87.9921875 C-122.26855424 59.75214655 -117.31691367 33.68325858 -98.8046875 11.4609375 C-74.00490474 -15.19525894 -29.8283241 -22.90890095 0 0 Z " fill="#019846" transform="translate(1209.4921875,1121.9140625)"/>
<path d="M0 0 C19.8 0 39.6 0 60 0 C60.02187378 7.70730469 60.02187378 7.70730469 60.04418945 15.5703125 C60.09450283 32.5377348 60.16094197 49.50506555 60.23571491 66.47239685 C60.28065989 76.76072159 60.32007759 87.04901181 60.34643555 97.33740234 C60.36942609 106.30588583 60.40283602 115.27425996 60.44870156 124.24265671 C60.47261946 128.99033983 60.49135765 133.73791476 60.49761391 138.48565674 C60.50367121 142.95739485 60.52369447 147.42885616 60.55427551 151.90049171 C60.56304537 153.53869516 60.5667805 155.17693479 60.56500816 156.81516075 C60.44002677 168.27008261 60.44002677 168.27008261 64 179 C66.71822809 181.71822809 68.14410361 182.0360259 72 183 C72 200.16 72 217.32 72 235 C63.43348634 236.71330273 56.22813007 237.39742331 47.625 237.4375 C46.3875 237.47037109 45.15 237.50324219 43.875 237.53710938 C33.74065147 237.59578192 24.86367048 235.5823762 17 228.875 C12.28731063 223.64506424 10.60233481 216.70781337 9 210 C8.45472656 210.71285156 7.90945313 211.42570312 7.34765625 212.16015625 C-0.12110965 221.6461273 -7.79639686 228.35850727 -19 233 C-19.92296875 233.39445312 -20.8459375 233.78890625 -21.796875 234.1953125 C-41.15701482 241.08212841 -63.97720034 238.27030824 -82.25 229.8125 C-102.43024324 219.13018163 -115.33827503 200.79585931 -122.29980469 179.42089844 C-129.76868361 153.59753602 -127.28510778 124.89048117 -115 101 C-104.96223559 83.32124351 -90.46240404 70.27394786 -70.98828125 64.03515625 C-52.66777446 59.14518088 -35.09413699 61.72970874 -18.77246094 70.95947266 C-10.51740882 75.80562033 -6.74162285 80.79768164 -1 89 C-0.67 59.63 -0.34 30.26 0 0 Z " fill="#009846" transform="translate(808,1047)"/>
<path d="M0 0 C26.4 0 52.8 0 80 0 C80 22.77 80 45.54 80 69 C94.19 69 108.38 69 123 69 C123 88.8 123 108.6 123 129 C108.81 129 94.62 129 80 129 C80.09079892 143.25015214 80.09079892 143.25015214 80.20898438 157.5 C80.26327707 163.31345158 80.3143884 169.12680737 80.34643555 174.94042969 C80.37247907 179.62845843 80.41288902 184.31616493 80.46318626 189.00399399 C80.47984786 190.7908718 80.49136655 192.57780534 80.49761391 194.36474991 C80.50726273 196.8712757 80.53533075 199.37697841 80.56762695 201.88330078 C80.56619186 202.61913895 80.56475677 203.35497711 80.5632782 204.1131134 C80.64837993 208.79504166 81.5631754 212.0058219 84 216 C88.59937008 220.05699153 94.23498828 220.55635562 100.14453125 220.328125 C104.94149147 219.77690112 109.40188902 218.42766523 114 217 C116.06053341 216.43033821 118.12300015 215.8676152 120.1875 215.3125 C121.79166667 214.875 123.39583333 214.4375 125 214 C126.5226099 217.54844157 127.52118337 220.95457398 128.296875 224.734375 C128.64770142 226.41454712 128.64770142 226.41454712 129.00561523 228.12866211 C129.25126221 229.32370361 129.49690918 230.51874512 129.75 231.75 C132.00949627 242.59629153 134.46614195 253.36851648 137.25878906 264.09082031 C137.62375488 265.54439941 137.62375488 265.54439941 137.99609375 267.02734375 C138.32371704 268.29179321 138.32371704 268.29179321 138.65795898 269.58178711 C139.05832547 272.41235814 138.94911522 274.29779641 138 277 C136.26025391 278.22265625 136.26025391 278.22265625 133.9765625 279.0625 C132.70727905 279.5416687 132.70727905 279.5416687 131.41235352 280.03051758 C130.49252686 280.35044678 129.5727002 280.67037598 128.625 281 C127.67616943 281.34248779 126.72733887 281.68497559 125.74975586 282.0378418 C96.29795762 292.44340847 59.99304144 300.10696586 30.4375 286.1875 C16.86182309 278.69552893 8.4961583 268.5671233 3 254 C-0.62539898 239.79867084 -0.39531058 225.3917836 -0.29296875 210.8359375 C-0.28735928 208.4627001 -0.28309559 206.08945918 -0.28010559 203.71621704 C-0.26876309 197.53167787 -0.23938952 191.34735697 -0.20599365 185.16290283 C-0.17506178 178.8273819 -0.16155131 172.491825 -0.14648438 166.15625 C-0.11450767 153.77072301 -0.06182878 141.38541397 0 129 C-8.91 129 -17.82 129 -27 129 C-27 109.2 -27 89.4 -27 69 C-18.09 69 -9.18 69 0 69 C0 46.23 0 23.46 0 0 Z " fill="#3A3286" transform="translate(870,723)"/>
<path d="M0 0 C57.42 0 114.84 0 174 0 C174 48.19876803 174 48.19876803 151.125 76.16015625 C146.78612946 81.47286812 142.56449044 86.87633181 138.34277344 92.28222656 C135.60937719 95.77898583 132.86349744 99.26595548 130.12011719 102.75488281 C127.8495358 105.64339705 125.58170976 108.53397574 123.3203125 111.4296875 C118.42266446 117.69387276 113.4673397 123.90381258 108.4375 130.0625 C103.68015793 135.89003502 99.03865269 141.78828923 94.4765625 147.76953125 C91.34046171 151.8763299 88.136398 155.92957136 84.92919922 159.98095703 C81.54301214 164.2704695 78.28230685 168.62359087 75 173 C124.995 173.495 124.995 173.495 176 174 C176 191.82 176 209.64 176 228 C116.27 228 56.54 228 -5 228 C-5 181 -5 181 8 166 C11.35425711 161.91126839 11.35425711 161.91126839 14.69140625 157.80859375 C17.41344091 154.4970152 20.20139731 151.24686941 23 148 C26.55457492 143.875357 30.06792298 139.72792096 33.5 135.5 C37.4337857 130.65403211 41.48447759 125.91901472 45.55859375 121.19140625 C48.58958284 117.66682097 51.56992581 114.10951168 54.5 110.5 C58.4337857 105.65403211 62.48447759 100.91901472 66.55859375 96.19140625 C70.33227412 91.80318251 74.00534689 87.34186835 77.65234375 82.84765625 C80.87001578 78.94468968 84.17032453 75.1147978 87.48828125 71.296875 C91.80964434 66.29881494 95.86038678 61.17451653 100 56 C67 55.67 34 55.34 0 55 C0 36.85 0 18.7 0 0 Z " fill="#009846" transform="translate(198,1053)"/>
<path d="M0 0 C1.00897339 0.00081573 1.00897339 0.00081573 2.03833008 0.00164795 C26.35504515 0.09148095 49.07011355 5.02353218 67.5625 21.68359375 C81.59128134 36.11522861 85.07002445 54.36122211 85.2109375 73.7265625 C85.23898433 75.89844532 85.26764861 78.07032023 85.296875 80.2421875 C85.33820432 83.63020789 85.37513993 87.01807699 85.40136719 90.40625 C85.4290126 93.70082045 85.47485168 96.9947431 85.5234375 100.2890625 C85.5283168 101.80024155 85.5283168 101.80024155 85.53329468 103.34194946 C85.63255836 109.0428225 85.81963624 113.54100472 89 118.375 C91.64 119.365 94.28 120.355 97 121.375 C97 138.205 97 155.035 97 172.375 C88.12635826 175.33288058 79.96026714 175.61178334 70.6875 175.6875 C69.51509766 175.71650391 68.34269531 175.74550781 67.13476562 175.77539062 C58.28996743 175.83959072 50.75981625 174.50469437 43.625 169 C37.7899788 163.1649788 35.7099801 157.30308956 34 149.375 C34 148.715 34 148.055 34 147.375 C33.34 147.375 32.68 147.375 32 147.375 C31.62101563 148.23544922 31.62101563 148.23544922 31.234375 149.11328125 C24.26751382 161.87851108 7.34382352 170.40024406 -6 174.375 C-12.22277971 175.56704349 -18.30682929 175.63371308 -24.625 175.6875 C-25.73746094 175.71650391 -26.84992187 175.74550781 -27.99609375 175.77539062 C-43.57062257 175.89324212 -57.46264507 169.51456491 -68.7109375 158.85546875 C-79.13133576 147.56374027 -83.36998973 134.01816434 -83.21484375 118.8828125 C-82.29454005 103.85676294 -76.38954947 92.09196727 -65.61816406 81.80029297 C-50.25358104 68.26703472 -31.27566205 63.780277 -11.1875 63.9375 C-9.23215332 63.94342163 -9.23215332 63.94342163 -7.23730469 63.94946289 C2.92630029 64.10041377 13.72629817 64.73814908 23 69.375 C23.67818798 61.44773603 23.16513117 54.74532844 18 48.375 C7.2765069 40.72791886 -7.182764 41.09771089 -19.75 43.0625 C-30.36553409 45.38962909 -39.8622341 50.13066356 -49.26416016 55.42797852 C-49.95171387 55.80881592 -50.63926758 56.18965332 -51.34765625 56.58203125 C-51.95617432 56.9272583 -52.56469238 57.27248535 -53.19165039 57.62817383 C-55 58.375 -55 58.375 -59 58.375 C-60.96401016 54.23389949 -62.92093183 50.08954914 -64.87158203 45.94213867 C-65.53504525 44.53401468 -66.20037939 43.12677053 -66.86767578 41.72045898 C-67.83087929 39.68966892 -68.78713311 37.65572664 -69.7421875 35.62109375 C-70.03809784 35.00100937 -70.33400818 34.38092499 -70.6388855 33.74205017 C-72.53922483 29.67128517 -73.86855729 25.70410375 -75 21.375 C-51.70148037 7.15957994 -27.43567709 -0.03778073 0 0 Z " fill="#019847" transform="translate(979,1108.625)"/>
<path d="M0 0 C0.95777344 -0.01780518 1.91554688 -0.03561035 2.90234375 -0.05395508 C16.16499788 -0.03919356 27.74880971 4.21528427 37.5234375 13.25 C49.99119625 26.68464617 52.77891672 45.18828423 52.66455078 62.85229492 C52.66484283 64.05359039 52.66513489 65.25488586 52.66543579 66.49258423 C52.66429056 69.75016414 52.65433933 73.00756668 52.64028788 76.26511168 C52.62768828 79.68302482 52.62660281 83.10094234 52.62423706 86.51887512 C52.61804917 92.97487254 52.60167525 99.4308013 52.58153808 105.88676864 C52.55688837 113.9668169 52.5460199 122.04687658 52.53515625 130.12695312 C52.51574166 144.52218874 52.47566675 158.91727479 52.4375 173.3125 C32.3075 173.3125 12.1775 173.3125 -8.5625 173.3125 C-8.59988281 166.05378906 -8.63726563 158.79507812 -8.67578125 151.31640625 C-8.7060688 146.70896094 -8.7372219 142.1015539 -8.77148438 137.49414062 C-8.82574609 130.18629922 -8.87685885 122.87853349 -8.90893555 115.57055664 C-8.93500682 109.67655326 -8.97543682 103.78280498 -9.02568626 97.88895988 C-9.04232903 95.64402383 -9.05385939 93.39904367 -9.06011391 91.15405464 C-9.06978297 88.00160307 -9.09787666 84.84980036 -9.13012695 81.69750977 C-9.12869186 80.77609192 -9.12725677 79.85467407 -9.1257782 78.90533447 C-9.22154415 72.25560042 -9.99533842 65.46856502 -14.31640625 60.15625 C-14.91324219 59.7128125 -15.51007813 59.269375 -16.125 58.8125 C-16.72441406 58.3484375 -17.32382812 57.884375 -17.94140625 57.40625 C-22.92568903 54.04336041 -28.77660817 54.64565145 -34.5625 55.3125 C-43.08198519 58.42561732 -49.44497676 65.28202441 -54.14118958 72.8598938 C-55.98252391 77.33280995 -56.00263453 81.10911671 -55.99487305 85.89794922 C-56.0050647 86.84492172 -56.01525635 87.79189423 -56.02575684 88.76756287 C-56.0558469 91.88416491 -56.06514682 95.00045938 -56.07421875 98.1171875 C-56.09106836 100.28338642 -56.10921898 102.44957557 -56.12861633 104.61575317 C-56.1760916 110.30713857 -56.20591712 115.99848439 -56.23205566 121.69000244 C-56.2671194 128.52421064 -56.32412521 135.35826686 -56.37744904 142.19235229 C-56.45593392 152.56571556 -56.50656192 162.93888026 -56.5625 173.3125 C-76.6925 173.3125 -96.8225 173.3125 -117.5625 173.3125 C-117.5625 117.5425 -117.5625 61.7725 -117.5625 4.3125 C-99.7425 4.3125 -81.9225 4.3125 -63.5625 4.3125 C-63.5625 12.2325 -63.5625 20.1525 -63.5625 28.3125 C-62.9025 28.3125 -62.2425 28.3125 -61.5625 28.3125 C-61.16998047 27.19294922 -61.16998047 27.19294922 -60.76953125 26.05078125 C-56.39397277 16.12435246 -44.53868884 9.58012745 -34.8125 5.76953125 C-23.29011302 1.58576334 -12.20797293 0.14500861 0 0 Z " fill="#019847" transform="translate(609.5625,1108.6875)"/>
<path d="M0 0 C0 23.76 0 47.52 0 72 C-9.24 72.66 -18.48 73.32 -28 74 C-42.92990864 76.48831811 -56.61677653 80.6562625 -68 91 C-69.27038616 93.54077232 -69.13902947 95.33036934 -69.15821838 98.17581177 C-69.1680072 99.27240112 -69.17779602 100.36899048 -69.18788147 101.49880981 C-69.19363693 102.70721527 -69.1993924 103.91562073 -69.20532227 105.16064453 C-69.21522186 106.42890076 -69.22512146 107.69715698 -69.23532104 109.00384521 C-69.26239821 112.4870665 -69.28339251 115.97030137 -69.30332303 119.45356989 C-69.32516527 123.09178307 -69.35256256 126.72995424 -69.37937927 130.36813354 C-69.42933003 137.25999121 -69.47426 144.15187216 -69.51740164 151.04377544 C-69.57597692 160.35507946 -69.64227657 169.66632823 -69.70815182 178.97758293 C-69.81176378 193.65168476 -69.90502812 208.32583383 -70 223 C-96.07 223 -122.14 223 -149 223 C-149 150.73 -149 78.46 -149 4 C-125.24 4 -101.48 4 -77 4 C-76.505 23.8 -76.505 23.8 -76 44 C-71.545 37.07 -71.545 37.07 -67 30 C-64.05303537 26.48001447 -61.22035202 23.22599187 -58 20 C-57.31550781 19.30390625 -56.63101563 18.6078125 -55.92578125 17.890625 C-39.4527338 2.17880895 -22.53491864 0 0 0 Z " fill="#393185" transform="translate(831,788)"/>
<path d="M0 0 C26.07 0 52.14 0 79 0 C79 72.27 79 144.54 79 219 C52.93 219 26.86 219 0 219 C0 146.73 0 74.46 0 0 Z " fill="#393185" transform="translate(1032,792)"/>
<path d="M0 0 C20.46 0 40.92 0 62 0 C62 56.1 62 112.2 62 170 C41.87 170 21.74 170 1 170 C0 169 0 169 -0.12304783 166.23761654 C-0.12212604 164.99227422 -0.12120424 163.7469319 -0.12025452 162.46385193 C-0.12153615 161.42738977 -0.12153615 161.42738977 -0.12284368 160.36998898 C-0.12450047 158.0375678 -0.1189739 155.70521737 -0.11352539 153.37280273 C-0.11324354 151.70765179 -0.11340122 150.04250072 -0.1139679 148.37734985 C-0.11425594 143.84241894 -0.10835816 139.30751424 -0.10139394 134.77258945 C-0.09516148 130.03866631 -0.09455669 125.30474264 -0.09336853 120.57081604 C-0.09025489 111.599979 -0.08204108 102.62915408 -0.07201904 93.65832239 C-0.0608589 83.44809608 -0.0553477 73.2378692 -0.05032361 63.02763832 C-0.03985849 42.01841727 -0.02151261 21.00921284 0 0 Z " fill="#049A49" transform="translate(399,1112)"/>
<path d="M0 0 C20.13 0 40.26 0 61 0 C61 55.77 61 111.54 61 169 C40.87 169 20.74 169 0 169 C0 113.23 0 57.46 0 0 Z " fill="#009846" transform="translate(1306,1112)"/>
<path d="M0 0 C3.1843007 1.83535051 5.50834531 4.32180432 8 7 C8.85722656 7.91136719 9.71445312 8.82273437 10.59765625 9.76171875 C25.00635919 25.65400907 36.4708698 46.16615402 36.3125 68.0625 C36.30512817 69.29468262 36.30512817 69.29468262 36.29760742 70.55175781 C35.881269 92.67961121 28.42091806 113.22077391 14 130 C13.31421875 130.80824219 12.6284375 131.61648438 11.921875 132.44921875 C9.99120827 134.67832824 8.02072372 136.85245262 6 139 C5.48695313 139.55171875 4.97390625 140.1034375 4.4453125 140.671875 C1.7401938 143.27463786 -0.17245362 144.03337812 -3.875 144.75 C-9.32663055 144.36652028 -12.40849265 140.78753504 -16 137 C-16.67160156 136.31292969 -17.34320313 135.62585938 -18.03515625 134.91796875 C-31.02381467 121.02836292 -38.26079423 104.1343163 -43 86 C-43.17813232 85.37319336 -43.35626465 84.74638672 -43.53979492 84.10058594 C-48.62369535 60.89534493 -39.79818648 39.43064018 -28 20 C-21.98871208 10.99441018 -12.12916844 -2.47753885 0 0 Z " fill="#3A3285" transform="translate(526,826)"/>
<path d="M0 0 C0.72316406 0.4125 1.44632813 0.825 2.19140625 1.25 C2.94550781 1.6625 3.69960937 2.075 4.4765625 2.5 C10.76130023 6.29455863 15.88991964 11.31583234 20.19140625 17.25 C20.63637451 17.85005859 21.08134277 18.45011719 21.53979492 19.06835938 C26.56751983 27.15296258 26.05176444 36.19057819 26.00805664 45.39941406 C26.00391279 48.24550729 26.06918856 51.08455429 26.13867188 53.9296875 C26.29195224 69.10211321 26.29195224 69.10211321 21.46875 75.2890625 C19.27026367 77.48535156 19.27026367 77.48535156 17.19140625 79.25 C15.82242187 80.53003906 15.82242187 80.53003906 14.42578125 81.8359375 C3.72545468 89.54151859 -6.57710649 92.71518164 -19.80859375 91.25 C-31.85809671 88.66277259 -41.73840262 82.40088444 -48.80859375 72.25 C-55.74985418 58.55694283 -57.87723023 41.29743624 -53.18359375 26.4375 C-52.0703125 23.75 -52.0703125 23.75 -50.80859375 21.25 C-50.13763672 19.9196875 -50.13763672 19.9196875 -49.453125 18.5625 C-39.69349238 0.97946214 -19.26762049 -9.3892973 0 0 Z " fill="#FCFCFD" transform="translate(1534.80859375,857.75)"/>
<path d="M0 0 C26.07 0 52.14 0 79 0 C79 22.11 79 44.22 79 67 C52.93 67 26.86 67 0 67 C0 44.89 0 22.78 0 0 Z " fill="#3A3285" transform="translate(1032,707)"/>
<path d="M0 0 C0.72783691 -0.00056396 1.45567383 -0.00112793 2.20556641 -0.00170898 C13.23992801 0.2081526 25.25910978 1.87803659 35.75 5.375 C35.31642613 10.53224703 34.7269585 15.55303228 33.6875 20.625 C29.20503365 47.14340782 36.42937531 70.94288197 51.6875 92.75244141 C53.65045925 95.46743582 55.64822526 98.15364469 57.69360352 100.80712891 C58.75 102.375 58.75 102.375 59.75 105.375 C40.08863928 102.10329972 22.09306003 94.67669083 9.75 78.375 C-2.56894507 60.98482842 -14.3143141 39.70799353 -14.5625 18 C-14.59150391 17.16210938 -14.62050781 16.32421875 -14.65039062 15.4609375 C-14.70698024 9.92386179 -13.99490339 6.7339326 -10.25 2.375 C-6.69018632 0.00179088 -4.12073618 -0.00811356 0 0 Z " fill="#3B3386" transform="translate(433.25,862.625)"/>
<path d="M0 0 C0.73283203 -0.02900391 1.46566406 -0.05800781 2.22070312 -0.08789062 C5.87618273 -0.13074115 8.06354855 0.16030701 11.20703125 2.08203125 C15.43455677 6.56054158 15.67158258 10.2760628 15.625 16.3125 C15.61936035 17.07361084 15.6137207 17.83472168 15.60791016 18.61889648 C15.46774571 25.19760503 14.41457485 31.06180194 12.3125 37.3125 C11.89871094 38.55515625 11.48492188 39.7978125 11.05859375 41.078125 C6.00816166 55.60941032 -0.9522867 68.35848367 -10.6875 80.3125 C-11.33460938 81.13621094 -11.98171875 81.95992187 -12.6484375 82.80859375 C-21.70290374 93.76634575 -33.51853303 98.15781232 -46.60400391 102.60400391 C-48.41368384 103.21938839 -50.21369124 103.86307663 -52.01171875 104.51171875 C-54.6875 105.3125 -54.6875 105.3125 -58.6875 105.3125 C-57.36943909 102.54786151 -55.90235376 100.05576288 -54.1484375 97.546875 C-36.88064505 72.50069625 -27.65481071 48.10477766 -33.1875 17.3125 C-33.4664126 15.85371783 -33.74749859 14.39534869 -34.03125 12.9375 C-34.6875 9.3125 -34.6875 9.3125 -34.6875 5.3125 C-31.85518453 4.66191471 -29.02177799 4.01693287 -26.1875 3.375 C-25.39601563 3.19259766 -24.60453125 3.01019531 -23.7890625 2.82226562 C-15.87465536 1.03828041 -8.11640057 0.10879894 0 0 Z " fill="#3A3286" transform="translate(608.6875,862.6875)"/>
<path d="M0 0 C6.96240185 3.47136702 12.32290753 8.70552301 16.828125 15.00390625 C17.19671631 15.51791992 17.56530762 16.03193359 17.94506836 16.56152344 C21.69411071 22.7092501 21.53825861 29.41588169 21.5144043 36.41259766 C21.51562371 38.50169092 21.57558423 40.58384586 21.63867188 42.671875 C21.71999363 48.86040972 21.72353114 53.88591947 17.53125 58.765625 C15.71972656 60.4753418 15.71972656 60.4753418 13.828125 62.00390625 C12.80259521 62.87958252 12.80259521 62.87958252 11.75634766 63.77294922 C3.81060739 70.34622453 -3.2842288 71.57959216 -13.54296875 71.35546875 C-18.45512479 70.87958711 -22.00417331 69.57582807 -26.171875 67.00390625 C-26.79449219 66.66488281 -27.41710937 66.32585937 -28.05859375 65.9765625 C-35.44001561 61.47725764 -39.79375092 52.65421497 -41.796875 44.44140625 C-43.19796451 31.59808574 -41.487435 20.64953376 -33.80859375 9.97265625 C-25.08813689 -0.51686704 -13.11228842 -4.1177753 0 0 Z " fill="#FBFDFC" transform="translate(787.171875,1161.99609375)"/>
<path d="M0 0 C3.93827121 2.9225462 7.47979326 5.92873121 10.46875 9.83203125 C10.90123047 10.3945459 11.33371094 10.95706055 11.77929688 11.53662109 C16.18759575 18.16007444 16.30131254 24.96296156 16.23046875 32.68847656 C16.21875906 34.83037452 16.27118756 36.96442479 16.328125 39.10546875 C16.40408933 46.88020647 15.73803417 52.3383949 10.28662109 58.17236328 C8.22989291 60.05010142 6.27727381 61.79801187 3.90625 63.26953125 C3.20371094 63.72199219 2.50117187 64.17445312 1.77734375 64.640625 C-6.70481615 69.018051 -16.86150997 69.53037023 -25.9609375 66.8046875 C-34.49116627 62.88685978 -40.73270421 56.94031473 -45.03125 48.58203125 C-48.52926297 38.57426319 -48.2541395 24.85903708 -44.46875 15.01953125 C-40.24160197 6.6839753 -33.83073772 -0.76600057 -24.703125 -3.76953125 C-15.68408125 -5.42410402 -7.82488588 -4.91356805 0 0 Z " fill="#FCFDFC" transform="translate(1198.53125,1165.16796875)"/>
<path d="M0 0 C20.13 0 40.26 0 61 0 C61 16.83 61 33.66 61 51 C40.87 51 20.74 51 0 51 C0 34.17 0 17.34 0 0 Z " fill="#009846" transform="translate(1306,1047)"/>
<path d="M0 0 C20.13 0 40.26 0 61 0 C61 16.83 61 33.66 61 51 C40.87 51 20.74 51 0 51 C0 34.17 0 17.34 0 0 Z " fill="#019846" transform="translate(400,1047)"/>
<path d="M0 0 C0.66 0.33 1.32 0.66 2 1 C2.3125 4.3125 2.3125 4.3125 2 8 C-0.84260487 10.38164192 -2.28405267 11 -6 11 C-5.505 11.804375 -5.01 12.60875 -4.5 13.4375 C-2.63819798 17.85927979 -2.15211215 21.27262531 -3 26 C-5.69697681 32.53498228 -9.92444414 36.13688875 -16.32421875 39.0625 C-19.22105391 40.07744954 -21.75639095 40.40407645 -24.8125 40.625 C-25.78832031 40.69976563 -26.76414062 40.77453125 -27.76953125 40.8515625 C-28.50558594 40.90054687 -29.24164062 40.94953125 -30 41 C-29.7171841 43.45196446 -29.7171841 43.45196446 -29 46 C-24.86567041 48.38872376 -20.69121223 49.3418428 -16.0625 50.4375 C-10.03295059 51.88821866 -4.78204501 53.65264952 0 57.6875 C1.91778934 62.12238784 1.63327617 66.52528249 0.44921875 71.15234375 C-2.08854446 77.41857424 -7.04053926 80.23992924 -13 83 C-17.39844524 84.29607216 -21.69564129 84.25986874 -26.25 84.3125 C-27.48169922 84.35600586 -27.48169922 84.35600586 -28.73828125 84.40039062 C-35.25502256 84.46752029 -40.77185871 83.13638403 -45.56323242 78.48120117 C-49.43042472 73.96134718 -50.36096316 71.11011275 -50.27734375 65.3125 C-49.68050234 60.33601947 -46.47589595 57.28460969 -42.875 54.125 C-40 52 -40 52 -38 52 C-38.33 51.443125 -38.66 50.88625 -39 50.3125 C-40.2045343 47.52701442 -40.43038716 46.01271015 -40 43 C-38 39.6875 -38 39.6875 -36 37 C-36.5775 36.7525 -37.155 36.505 -37.75 36.25 C-41.12063422 34.37742544 -43.2951921 32.19817343 -45.25 28.875 C-46.81183161 22.88797883 -47.10216491 17.20245984 -44 11.6875 C-40.49687598 6.74309066 -35.67763487 3.89254496 -30 2 C-25.64705888 1.68275175 -21.45631203 1.41054037 -17.375 3.0625 C-13.25099801 4.69039552 -9.03074092 3.78929188 -5 2.22265625 C-4.38125 1.94292969 -3.7625 1.66320313 -3.125 1.375 C-2.09375 0.92125 -1.0625 0.4675 0 0 Z " fill="#3F3789" transform="translate(552,1345)"/>
<path d="M0 0 C11.1358921 7.76447523 17.50178883 26.83840281 23.01855469 38.66625977 C26.1012913 45.25540753 29.44929073 51.65092216 33 58 C33.66 58 34.32 58 35 58 C36.73356086 54.71063091 38.46151135 51.41834843 40.1875 48.125 C40.72197754 47.10591553 41.25645508 46.08683105 41.80712891 45.03686523 C44.76205764 39.3763272 47.6620117 33.69467403 50.48046875 27.96484375 C51.04805908 26.81290527 51.61564941 25.6609668 52.20043945 24.47412109 C53.29336696 22.2474745 54.37946717 20.01746003 55.45776367 17.78369141 C62.95468361 2.52265819 62.95468361 2.52265819 68 0 C72.05142119 -0.25860135 73.54337669 -0.30441554 77 2 C76.76216797 3.61455078 76.76216797 3.61455078 76.51953125 5.26171875 C74.675903 20.20394909 75.57263178 35.53175948 77.75 50.375 C77.90686279 51.46014893 78.06372559 52.54529785 78.2253418 53.66333008 C79.28104374 60.24311268 80.95743954 66.28582461 83.30175781 72.52587891 C84 75 84 75 83 78 C79.55656101 80.51635926 76.1355081 80.37595528 72 80 C70.34448242 78.99023438 70.34448242 78.99023438 69 77 C68.52816128 74.22769038 68.23077376 71.63671602 68.05078125 68.84375 C67.98843796 68.02741089 67.92609467 67.21107178 67.86186218 66.36999512 C67.73202543 64.63206734 67.60890365 62.89362696 67.49194336 61.15478516 C67.31682736 58.56402137 67.12038735 55.97562973 66.91992188 53.38671875 C66.06928136 41.90986215 65.84547368 30.50526143 66 19 C65.34 19 64.68 19 64 19 C63.87818359 19.99580078 63.87818359 19.99580078 63.75390625 21.01171875 C62.75875827 24.95621723 60.88183916 28.27295401 58.9375 31.8125 C55.46374785 38.25407336 52.10377928 44.7431067 48.84765625 51.296875 C48.48961411 52.01723434 48.13157196 52.73759369 47.76268005 53.4797821 C46.311389 56.40317453 44.86211394 59.32752152 43.41964722 62.25527954 C42.39761478 64.3293722 41.37095581 66.40112215 40.34375 68.47265625 C40.03578995 69.10206116 39.7278299 69.73146606 39.41053772 70.37994385 C38.13094426 72.95401885 37.04827779 74.95172221 35 77 C32.49733282 76.79541592 31.3657702 76.41781035 29.69950867 74.51448059 C29.32904922 73.87653061 28.95858978 73.23858063 28.5769043 72.58129883 C28.15444427 71.85592926 27.73198425 71.13055969 27.29672241 70.38320923 C25.02187326 66.20232869 22.87276587 61.96871642 20.76953125 57.69921875 C20.29303635 56.74102737 19.81654144 55.782836 19.3256073 54.79560852 C17.81737863 51.76146993 16.31457603 48.72468857 14.8125 45.6875 C13.2989886 42.63282767 11.7842944 39.57875628 10.26725769 36.52583313 C9.3268146 34.63271885 8.38851228 32.73853925 7.45259094 30.84318542 C7.02842392 29.98832047 6.6042569 29.13345551 6.16723633 28.25268555 C5.79593094 27.50182175 5.42462555 26.75095795 5.04206848 25.9773407 C3.9264717 23.77833747 3.9264717 23.77833747 2 21 C1.13761836 26.36965572 0.75249182 31.65101273 0.53515625 37.08203125 C0.45662406 38.83659947 0.37784012 40.59115644 0.29882812 42.34570312 C0.17956003 45.07711383 0.0626613 47.80857353 -0.04956055 50.5402832 C-1.11407693 76.11407693 -1.11407693 76.11407693 -5 80 C-6.875 80.046875 -6.875 80.046875 -9 79.75 C-9.70125 79.66234375 -10.4025 79.5746875 -11.125 79.484375 C-13 79 -13 79 -15 77 C-14.828125 74.8984375 -14.828125 74.8984375 -14.25 72.375 C-14.06953125 71.55773438 -13.8890625 70.74046875 -13.703125 69.8984375 C-13.15859612 67.65376846 -12.59492793 65.41373779 -12.0234375 63.17578125 C-7.96478886 46.88015437 -7.73466861 31.00877274 -8.11083984 14.31958008 C-8.12359955 13.52253159 -8.13635925 12.72548309 -8.14950562 11.90428162 C-8.17435218 10.3881921 -8.21178047 8.87224315 -8.26333618 7.35682678 C-8.29296875 5.30615234 -8.29296875 5.30615234 -8 2 C-4.76124923 -0.15916718 -3.75511443 -0.46647384 0 0 Z " fill="#3E3688" transform="translate(205,1324)"/>
<path d="M0 0 C3.68193655 0.55209016 6.08215251 1.45129519 9.1015625 3.6171875 C9.83890625 4.14183594 10.57625 4.66648437 11.3359375 5.20703125 C12.09132813 5.75746094 12.84671875 6.30789063 13.625 6.875 C14.388125 7.41769531 15.15125 7.96039062 15.9375 8.51953125 C23.00008019 13.5872423 23.00008019 13.5872423 25 16 C25.88657026 22.76009826 25.88657026 22.76009826 22.86328125 26.98828125 C9.3844294 42.15019908 -16.8920987 51.60621665 -36.56640625 53.30859375 C-50.57552712 53.76050087 -64.6097019 50.75281386 -77 44 C-77 43.67 -77 43.34 -77 43 C-76.04222656 42.92523437 -75.08445312 42.85046875 -74.09765625 42.7734375 C-53.10013269 40.82867893 -32.75489311 32.09791297 -17 18 C-16.14921875 17.27941406 -15.2984375 16.55882812 -14.421875 15.81640625 C-8.8697452 11.02062946 -4.2620773 5.96973078 0 0 Z " fill="#3C3487" transform="translate(620,942)"/>
<path d="M0 0 C2.2743014 1.80899548 4.05465496 3.76867506 5.93359375 5.98828125 C23.95336146 26.31154678 48.18463872 40.57801304 75.66796875 42.375 C76.75851562 42.43107422 76.75851562 42.43107422 77.87109375 42.48828125 C75.96481494 46.30083886 70.83227038 46.94535796 66.95703125 48.24609375 C42.71219827 55.88583249 20.64652257 52.27601371 -1.7265625 40.88671875 C-10.49775312 36.21710936 -19.56070322 30.92013155 -25.12890625 22.48828125 C-25.52734375 19.5546875 -25.52734375 19.5546875 -25.12890625 16.48828125 C-21.26851072 11.41661037 -6.9975327 -1.68197575 0 0 Z " fill="#3C3486" transform="translate(423.12890625,942.51171875)"/>
<path d="M0 0 C4.08187 2.80281832 6.53645418 5.8527148 8.3125 10.5 C9.01421982 16.0008296 9.0175309 21.46144602 9 27 C9.00895724 29.21800624 9.02513586 31.43557347 9.0514679 33.65344238 C9.07297946 35.66534376 9.07362649 37.67743684 9.07299805 39.68945312 C9.3373129 43.89478054 10.17877571 47.45174733 11.3125 51.5 C9.01471314 53.62758042 7.94086483 54.51532597 4.75 54.4375 C1.83894901 53.317865 1.0570346 52.01314115 -0.6875 49.5 C-1.25855469 49.8609375 -1.82960938 50.221875 -2.41796875 50.59375 C-9.47148654 54.63073951 -15.62050867 55.66319768 -23.6875 54.5 C-28.72109633 52.1156649 -32.18746787 48.50006427 -34.6875 43.5 C-35.2113576 38.24424835 -35.35255372 33.85473905 -33 29.0625 C-28.43303258 24.00180637 -23.30181953 19.97251323 -16.33911133 19.25952148 C-13.80294642 19.2060893 -11.28552825 19.23730182 -8.75 19.3125 C-7.43805664 19.33280273 -7.43805664 19.33280273 -6.09960938 19.35351562 C-3.96196914 19.38855891 -1.82465016 19.44235459 0.3125 19.5 C0.04119753 18.05123349 -0.2440514 16.60507403 -0.53515625 15.16015625 C-0.69250244 14.35457275 -0.84984863 13.54898926 -1.01196289 12.71899414 C-1.59272304 10.21621931 -1.59272304 10.21621931 -4.125 7.9375 C-9.4368703 5.79411374 -15.26718741 5.0759788 -20.6953125 7.3359375 C-22.95550585 8.78813902 -24.47844673 10.08189345 -25.6875 12.5 C-27.625 11.8125 -27.625 11.8125 -29.6875 10.5 C-30.4375 7.875 -30.4375 7.875 -30.6875 5.5 C-29.58831184 4.51524786 -28.4829398 3.53739527 -27.375 2.5625 C-26.45267578 1.74458984 -26.45267578 1.74458984 -25.51171875 0.91015625 C-19.72807267 -3.56071363 -6.44166191 -2.81203318 0 0 Z " fill="#3E3788" transform="translate(893.6875,1349.5)"/>
<path d="M0 0 C4.16978206 2.96696031 6.62620675 5.44112025 8.25 10.3125 C8.36663279 12.55145245 8.42864792 14.79340054 8.4609375 17.03515625 C8.48903982 18.39258949 8.51770444 19.75001117 8.546875 21.10742188 C8.58783084 23.23103078 8.62474216 25.35443209 8.65136719 27.47827148 C8.76474285 35.81431516 9.18961238 43.46127463 12.25 51.3125 C9.56500099 53.23035643 7.97496333 54.32976103 4.625 54.25 C1.77241045 53.12397781 0.97060203 51.7840006 -0.75 49.3125 C-1.32105469 49.6734375 -1.89210938 50.034375 -2.48046875 50.40625 C-9.53398654 54.44323951 -15.68300867 55.47569768 -23.75 54.3125 C-28.25665768 52.17776742 -30.9241532 49.39427871 -33.75 45.3125 C-35.47237197 40.1453841 -35.40561622 35.20650242 -33.625 30.0625 C-29.94853583 24.67035256 -25.0127724 21.12836403 -18.75 19.3125 C-15.42430778 18.97439372 -12.15070983 19.02599606 -8.8125 19.125 C-7.50055664 19.14530273 -7.50055664 19.14530273 -6.16210938 19.16601562 C-4.02446914 19.20105891 -1.88715016 19.25485459 0.25 19.3125 C-0.02130247 17.86373349 -0.3065514 16.41757403 -0.59765625 14.97265625 C-0.75500244 14.16707275 -0.91234863 13.36148926 -1.07446289 12.53149414 C-1.65522304 10.02871931 -1.65522304 10.02871931 -4.1875 7.75 C-9.4993703 5.60661374 -15.32968741 4.8884788 -20.7578125 7.1484375 C-23.01800585 8.60063902 -24.54094673 9.89439345 -25.75 12.3125 C-27.07 11.6525 -28.39 10.9925 -29.75 10.3125 C-30.125 7.625 -30.125 7.625 -29.75 4.3125 C-22.53202194 -2.90547806 -9.41806706 -4.43203156 0 0 Z " fill="#3E3688" transform="translate(332.75,1349.6875)"/>
<path d="M0 0 C6.24795675 -0.02527124 12.49590041 -0.04283344 18.74389648 -0.05493164 C20.87118014 -0.05997298 22.99846031 -0.06680591 25.12573242 -0.07543945 C28.17627826 -0.08751379 31.22677845 -0.09323014 34.27734375 -0.09765625 C35.71327126 -0.10539818 35.71327126 -0.10539818 37.1782074 -0.11329651 C38.49946373 -0.11340981 38.49946373 -0.11340981 39.84741211 -0.11352539 C40.62684677 -0.115746 41.40628143 -0.11796661 42.20933533 -0.12025452 C44 0 44 0 45 1 C45.35897436 7.46153846 45.35897436 7.46153846 43 11 C42.10152344 10.84660156 41.20304688 10.69320313 40.27734375 10.53515625 C34.73585871 9.74351553 29.15008119 9.64001717 23.5625 9.4375 C19.746875 9.293125 15.93125 9.14875 12 9 C12 17.25 12 25.5 12 34 C21.57 33.67 31.14 33.34 41 33 C41 35.31 41 37.62 41 40 C37.50663182 42.32891212 36.13992135 42.23551143 32.01953125 42.1953125 C30.97128174 42.19031738 29.92303223 42.18532227 28.84301758 42.18017578 C27.51294678 42.16196777 26.18287598 42.14375977 24.8125 42.125 C20.584375 42.08375 16.35625 42.0425 12 42 C12 51.57 12 61.14 12 71 C15.485625 70.87625 18.97125 70.7525 22.5625 70.625 C24.18973999 70.57400146 24.18973999 70.57400146 25.84985352 70.52197266 C31.22686511 70.30335071 35.9062397 69.75745446 41 68 C43.45331002 71.67996503 43.39507893 73.65413172 43 78 C39.11506838 80.58995441 35.89432764 80.25225542 31.39453125 80.1953125 C30.55532639 80.1924826 29.71612152 80.18965271 28.85148621 80.18673706 C26.17167897 80.17554385 23.49220619 80.15044101 20.8125 80.125 C18.99544754 80.11496908 17.17838983 80.10584343 15.36132812 80.09765625 C10.90742325 80.07560734 6.45376833 80.04108351 2 80 C1.9845388 78.69573814 1.9845388 78.69573814 1.96876526 77.36512756 C1.8704904 69.14154478 1.76793544 60.91802864 1.66066074 52.69455814 C1.60566814 48.46753937 1.55228816 44.24051346 1.50268555 40.01342773 C1.45469023 35.92850152 1.40233875 31.84365157 1.34705925 27.75881767 C1.32679378 26.2060583 1.30805639 24.65327816 1.29092598 23.10048103 C1.20444005 15.34764274 1.06310653 7.69144334 0 0 Z " fill="#3F3788" transform="translate(805,1324)"/>
<path d="M0 0 C3.77347149 3.24000775 6.34215328 6.78881417 7.28125 11.73046875 C7.49001311 16.15624671 6.68920305 19.22154374 3.87890625 22.61328125 C-0.89194601 26.12864608 -5.47050774 26.73856061 -11.28125 26.74609375 C-12.23966797 26.74738281 -13.19808594 26.74867187 -14.18554688 26.75 C-15.66958008 26.74419922 -15.66958008 26.74419922 -17.18359375 26.73828125 C-18.17681641 26.74214844 -19.17003906 26.74601562 -20.19335938 26.75 C-21.15048828 26.74871094 -22.10761719 26.74742188 -23.09375 26.74609375 C-23.96265869 26.74496582 -24.83156738 26.74383789 -25.72680664 26.74267578 C-27.99394258 26.62015288 -29.94727027 26.24732622 -32.12109375 25.61328125 C-31.14194119 31.41089507 -30.04835454 36.031477 -26.12109375 40.61328125 C-21.46785679 43.48573398 -17.92534292 43.99650293 -12.49609375 43.92578125 C-11.20445312 43.92191406 -9.9128125 43.91804688 -8.58203125 43.9140625 C-5.39385357 43.63698611 -3.82533743 43.15407125 -1.12109375 41.61328125 C1.12890625 41.98828125 1.12890625 41.98828125 2.87890625 42.61328125 C3.19140625 45.42578125 3.19140625 45.42578125 2.87890625 48.61328125 C0.50390625 50.42578125 0.50390625 50.42578125 -2.12109375 51.61328125 C-3.11109375 52.10828125 -3.11109375 52.10828125 -4.12109375 52.61328125 C-15.40798271 53.4294819 -24.90235199 53.70361155 -33.9453125 46.07421875 C-39.84829595 40.04259886 -41.24311156 32.42146156 -41.68359375 24.23828125 C-41.47663363 16.27031669 -38.58833854 9.70285203 -33.4453125 3.63671875 C-24.54690381 -4.66846269 -10.40736422 -6.8040779 0 0 Z " fill="#3F3789" transform="translate(752.12109375,1351.38671875)"/>
<path d="M0 0 C3.79271136 2.48250198 6.70126995 6.0900399 8.71875 10.125 C9.20892604 15.11515282 9.43485449 19.59938608 7.28125 24.1875 C0.86028304 29.04237746 -7.95253509 28.41073529 -15.65625 28.3125 C-17.13158203 28.3115332 -17.13158203 28.3115332 -18.63671875 28.31054688 C-25.85797038 28.26609321 -25.85797038 28.26609321 -29.28125 27.125 C-28.30589265 32.90014219 -27.25859904 37.61017136 -23.28125 42.125 C-17.32932377 45.84495389 -11.15919724 45.83369205 -4.28125 45.125 C-1.40558412 44.35874294 1.00367257 43.37811266 3.71875 42.125 C5.71875 45.125 5.71875 45.125 5.78125 48.125 C4.71875 51.125 4.71875 51.125 1.671875 52.78125 C-2.42151556 54.37704048 -6.23149798 54.66396189 -10.59375 54.625 C-11.33923096 54.61927979 -12.08471191 54.61355957 -12.8527832 54.60766602 C-20.18239707 54.37132954 -25.6055263 52.43158051 -31.109375 47.48046875 C-38.15076918 39.90926093 -39.01665054 32.17613199 -38.68359375 22.296875 C-38.1007203 14.19838414 -34.60632382 9.08053658 -28.78125 3.625 C-20.88440621 -3.15961227 -9.57699276 -4.22036969 0 0 Z " fill="#3F3789" transform="translate(1021.28125,1349.875)"/>
<path d="M0 0 C0.66 0.33 1.32 0.66 2 1 C2.08139142 3.39652528 2.14067009 5.79025436 2.1875 8.1875 C2.21263672 8.86103516 2.23777344 9.53457031 2.26367188 10.22851562 C2.34354302 15.68637734 1.09169056 18.6419934 -2.47265625 22.66015625 C-10.63331955 29.8583826 -20.26623066 32.38551238 -30.953125 32.28125 C-36.75613081 31.74558793 -40.51434432 29.59993689 -44.4375 25.375 C-47.71860477 20.38772076 -47.56609062 15.86902771 -47 10 C-44.44230237 4.10617502 -39.44380553 1.07780534 -34 -2 C-23.763881 -5.41203967 -9.92959109 -3.47806004 0 0 Z " fill="#FBFCFC" transform="translate(1001,1209)"/>
<path d="M0 0 C2.15337859 3.23006788 2.23435972 3.9583826 2.13525391 7.6550293 C2.11508209 8.59577805 2.09491028 9.53652679 2.0741272 10.50578308 C2.02583267 12.02465874 2.02583267 12.02465874 1.9765625 13.57421875 C1.95153656 14.61318802 1.92651062 15.65215729 1.90072632 16.72261047 C1.81848376 20.04457009 1.72190985 23.36593901 1.625 26.6875 C1.56676485 28.93812683 1.50946148 31.18877797 1.453125 33.43945312 C1.31289866 38.95996322 1.16090069 44.4800559 1 50 C2.26192748 49.06409608 3.52237951 48.12620257 4.78222656 47.1875 C5.83534027 46.40439453 5.83534027 46.40439453 6.909729 45.60546875 C10.00613875 43.22721775 12.88601101 40.65005246 15.75 38 C16.30042969 37.505 16.85085938 37.01 17.41796875 36.5 C20.91536773 33.2793736 23.51384845 30.05508214 26 26 C28.96175123 26.61277612 30.38058783 27.25372522 33 29 C33.453125 31.359375 33.453125 31.359375 33 34 C31.234375 36.140625 31.234375 36.140625 28.75 38.25 C27.85023438 39.01699219 26.95046875 39.78398438 26.0234375 40.57421875 C21.11060998 44.51590595 16.09522022 48.29677293 11 52 C12.38053655 55.19119001 13.89939474 57.03343562 16.5625 59.25 C19.60541117 61.81418916 22.5693955 64.43311025 25.5 67.125 C29.42335947 70.6321422 33.45574455 73.35606956 38 76 C37.25 80.75 37.25 80.75 35 83 C31.74367547 83.51272112 30.40430951 83.28131788 27.67578125 81.3828125 C26.89589844 80.63773438 26.11601562 79.89265625 25.3125 79.125 C24.44496094 78.30515625 23.57742188 77.4853125 22.68359375 76.640625 C19.23049734 73.24281834 15.80631762 69.81808782 12.40234375 66.37109375 C9.0708912 63.08297717 5.55798841 60.03776034 2 57 C1.67 56.67 1.34 56.34 1 56 C0.76341079 64.26747851 1.18655665 71.92046224 3 80 C-0.53683203 81.49293413 -3.12635027 82.41877294 -7 82 C-9 80 -9 80 -9.23377991 77.06646729 C-9.22632248 75.80993347 -9.21886505 74.55339966 -9.21118164 73.25878906 C-9.20921028 72.219422 -9.20921028 72.219422 -9.2071991 71.15905762 C-9.20069194 68.86110952 -9.180245 66.56349105 -9.16015625 64.265625 C-9.15388573 62.66860311 -9.14864568 61.07157688 -9.14439392 59.47454834 C-9.13106866 55.2616061 -9.10663618 51.04880784 -9.07904053 46.8359375 C-9.0359989 40.10683235 -9.00613104 33.3776911 -8.9829998 26.64849091 C-8.97280956 24.30094408 -8.95574943 21.95351834 -8.93800354 19.60601807 C-8.93117034 18.15694283 -8.92456173 16.70786651 -8.91821289 15.25878906 C-8.90995987 13.99907288 -8.90170685 12.73935669 -8.89320374 11.44146729 C-8.99386437 8.19771839 -9.38163637 5.18163752 -10 2 C-6.61242079 -0.08466413 -3.94726562 -0.42905061 0 0 Z " fill="#3F3789" transform="translate(367,1322)"/>
<path d="M0 0 C7.4422658 -0.36601307 7.4422658 -0.36601307 10 1.3125 C11 3 11 3 11 6 C11.72703125 5.566875 12.4540625 5.13375 13.203125 4.6875 C21.30618227 0.1996529 28.22203952 -1.9221082 37.35546875 0.66796875 C42.4001661 2.83539031 45.41177503 6.21233922 48 11 C49.13902348 14.41707044 49.17576222 17.15503848 49.24609375 20.7578125 C49.2790652 22.11979729 49.31227622 23.48177631 49.34570312 24.84375 C49.39281408 26.97619187 49.43719569 29.10861615 49.47680664 31.24121094 C49.62863057 39.04150625 49.91991269 46.43757731 52 54 C48.52254801 55.58969234 45.83557374 56.41465662 42 56 C39.04952071 53.04952071 39.70225231 49.87596474 39.69140625 45.921875 C39.66623431 44.2695279 39.64083647 42.61718424 39.61523438 40.96484375 C39.58655534 38.36019879 39.5625406 35.75561377 39.54370117 33.15087891 C39.52195735 30.63671913 39.48249842 28.12328235 39.44140625 25.609375 C39.44129044 24.83728699 39.44117462 24.06519897 39.4410553 23.26971436 C39.35379628 18.46898604 38.6075667 15.17964049 36 11 C33.04814304 8.85432246 30.34636772 8.67637668 26.75 8.625 C25.85796875 8.59664062 24.9659375 8.56828125 24.046875 8.5390625 C19.89370123 9.16736315 16.64128114 10.97259899 13 13 C12.97522513 18.03539677 12.95710451 23.07075781 12.94506836 28.10620117 C12.94004901 29.81812152 12.93323215 31.53003761 12.92456055 33.24194336 C12.91238979 35.70687922 12.90674762 38.17175825 12.90234375 40.63671875 C12.89718246 41.39836838 12.89202118 42.16001801 12.88670349 42.94474792 C12.88630362 46.75849825 13.07409039 50.29315771 14 54 C10.52254801 55.58969234 7.83557374 56.41465662 4 56 C2 54 2 54 1.77294922 52.11167908 C1.78342285 51.34384598 1.79389648 50.57601288 1.8046875 49.78491211 C1.81129395 48.91317856 1.81790039 48.04144501 1.82470703 47.14329529 C1.84130371 46.19753128 1.85790039 45.25176727 1.875 44.27734375 C1.88635986 42.81537315 1.88635986 42.81537315 1.89794922 41.3238678 C1.93064398 37.14742544 1.98650528 32.97137192 2.04101562 28.79516602 C2.07743049 25.74757738 2.10148016 22.70005501 2.125 19.65234375 C2.14159668 18.72074936 2.15819336 17.78915497 2.17529297 16.82933044 C2.21907569 10.90588256 1.48510634 5.7390736 0 0 Z " fill="#3F3788" transform="translate(442,1348)"/>
<path d="M0 0 C2 2 2 2 2.24291992 3.93139648 C2.23675659 5.13904663 2.23675659 5.13904663 2.23046875 6.37109375 C2.22917969 7.31807129 2.22789062 8.26504883 2.2265625 9.24072266 C2.21367188 10.29565918 2.20078125 11.3505957 2.1875 12.4375 C2.17783203 14.08951416 2.17783203 14.08951416 2.16796875 15.77490234 C2.01037913 34.18580232 1.47798 52.59522739 1 71 C4.68807156 70.88926332 8.37520029 70.75884028 12.0625 70.625 C13.10083984 70.5940625 14.13917969 70.563125 15.20898438 70.53125 C20.80636091 70.31801661 25.7018472 69.84871715 31 68 C32.8454602 71.11421408 33.46369062 73.38321316 33 77 C31.72451782 78.63006592 31.72451782 78.63006592 30 80 C26.99888947 80.27395407 24.20972372 80.3724957 21.2109375 80.328125 C19.92239365 80.32531525 19.92239365 80.32531525 18.6078186 80.32244873 C16.79384474 80.31572977 14.97988532 80.30181833 13.16601562 80.28125 C10.37877045 80.25004222 7.5920902 80.24027426 4.8046875 80.234375 C3.04426389 80.22520727 1.28384606 80.21483224 -0.4765625 80.203125 C-1.31506744 80.19887512 -2.15357239 80.19462524 -3.01748657 80.19024658 C-8.88283761 80.11716239 -8.88283761 80.11716239 -10 79 C-10.08367666 76.93054803 -10.09628914 74.85820158 -10.08178711 72.78710938 C-10.07872055 72.13817719 -10.07565399 71.489245 -10.07249451 70.82064819 C-10.06532157 69.40576461 -10.05592241 67.99089101 -10.04459953 66.57603455 C-10.02724014 64.33034608 -10.01691782 62.08472859 -10.00868225 59.83898926 C-9.98421688 53.45151023 -9.94895201 47.06412546 -9.90405273 40.67675781 C-9.87710405 36.7722894 -9.86016567 32.86787748 -9.84918404 28.96333313 C-9.8430128 27.48031037 -9.83305653 25.99729798 -9.81910515 24.514328 C-9.74683065 16.75398129 -9.88324948 9.52111997 -12 2 C-7.64769406 -0.28805642 -4.91545669 -0.31712624 0 0 Z " fill="#3E3688" transform="translate(610,1324)"/>
<path d="M0 0 C0.95648437 -0.02578125 1.91296875 -0.0515625 2.8984375 -0.078125 C6.00392147 0.29560086 7.33036066 1.18373709 9.625 3.25 C9.375 6.125 9.375 6.125 8.625 9.25 C6.5625 10.625 6.5625 10.625 4.625 11.25 C3.635 10.59 2.645 9.93 1.625 9.25 C-1.375 8.75 -1.375 8.75 -4.375 9.25 C-8.18877525 13.06377525 -8.54734656 17.25403289 -8.9375 22.4375 C-9.06318359 24.06751953 -9.06318359 24.06751953 -9.19140625 25.73046875 C-9.28228516 26.97763672 -9.28228516 26.97763672 -9.375 28.25 C-8.52035156 28.23839844 -7.66570313 28.22679687 -6.78515625 28.21484375 C-5.68042969 28.20582031 -4.57570313 28.19679688 -3.4375 28.1875 C-2.33535156 28.17589844 -1.23320313 28.16429687 -0.09765625 28.15234375 C2.625 28.25 2.625 28.25 3.625 29.25 C3.75 31.75 3.75 31.75 3.625 34.25 C2.625 35.25 2.625 35.25 -0.09765625 35.34765625 C-1.19980469 35.33605469 -2.30195312 35.32445312 -3.4375 35.3125 C-4.54222656 35.30347656 -5.64695312 35.29445313 -6.78515625 35.28515625 C-7.63980469 35.27355469 -8.49445312 35.26195312 -9.375 35.25 C-9.37055878 35.79679413 -9.36611755 36.34358826 -9.36154175 36.9069519 C-9.31738644 42.58426304 -9.28716621 48.26152561 -9.26513672 53.93896484 C-9.25506249 56.0594277 -9.24140267 58.17987661 -9.22412109 60.30029297 C-9.19993511 63.34345943 -9.18853131 66.38644266 -9.1796875 69.4296875 C-9.16936493 70.38181122 -9.15904236 71.33393494 -9.14840698 72.31491089 C-9.14825592 73.19567291 -9.14810486 74.07643494 -9.14794922 74.98388672 C-9.143508 75.76110077 -9.13906677 76.53831482 -9.13449097 77.33908081 C-9.375 79.25 -9.375 79.25 -11.375 81.25 C-13.25 81.26171875 -13.25 81.26171875 -15.375 80.9375 C-16.07625 80.83824219 -16.7775 80.73898437 -17.5 80.63671875 C-19.375 80.25 -19.375 80.25 -21.375 79.25 C-20.47418248 72.68690096 -20.47418248 72.68690096 -19.85961914 69.97973633 C-19.25218601 66.55822006 -19.15547222 63.23550378 -19.05859375 59.76171875 C-19.03781265 59.05852005 -19.01703156 58.35532135 -18.99562073 57.6308136 C-18.93059885 55.39980183 -18.87146224 53.16867931 -18.8125 50.9375 C-18.76926964 49.41860866 -18.72565395 47.89972823 -18.68164062 46.38085938 C-18.57496666 42.6706888 -18.47356779 38.96039579 -18.375 35.25 C-21.015 35.25 -23.655 35.25 -26.375 35.25 C-26.375 33.27 -26.375 31.29 -26.375 29.25 C-23.735 29.25 -21.095 29.25 -18.375 29.25 C-18.46201172 28.01636719 -18.46201172 28.01636719 -18.55078125 26.7578125 C-18.87524683 18.72960707 -18.1209607 12.86969064 -13.375 6.25 C-9.27946348 1.9141386 -5.93125295 0.09540889 0 0 Z " fill="#3D3587" transform="translate(701.375,1322.75)"/>
<path d="M0 0 C0.99 0.66 1.98 1.32 3 2 C2.74438677 4.3431213 2.40729228 6.67843403 2 9 C-0.51452901 10.2572645 -2.08103507 9.9658779 -4.875 9.8125 C-8.33510328 9.78746307 -9.66839012 9.7994917 -12.6875 11.625 C-14.20687123 13.95886437 -14.20687123 13.95886437 -14.125 16.8125 C-12.17897616 22.32623421 -8.32291091 26.0279473 -3.8125 29.625 C0.4170451 33.19661586 1.84584534 35.3813761 2.375 40.9375 C2.15200079 46.08587306 0.45912254 49.58140864 -3.25 53.1875 C-9.69977512 57.43848815 -15.25217448 59.09064454 -23 58 C-25 56 -25 56 -25.1875 53 C-25 50 -25 50 -24 48 C-23.484375 48.165 -22.96875 48.33 -22.4375 48.5 C-18.01140729 49.40791645 -14.31014314 49.50175695 -10.0625 47.875 C-7.76309679 46.13289692 -7.76309679 46.13289692 -7.3125 43.25 C-8.58621149 37.22881842 -13.095372 33.68548919 -17.6875 29.875 C-21.89950653 26.32461397 -24.10675941 23.3347887 -24.6875 17.75 C-24.50233947 12.46851637 -21.89834125 9.59568872 -18.28125 5.953125 C-12.49544525 0.99952505 -7.59760086 -0.77263738 0 0 Z " fill="#3F3889" transform="translate(942,1347)"/>
<path d="M0 0 C7.4057508 -0.36421725 7.4057508 -0.36421725 9.9375 1.1875 C11.23983048 3.40912258 11.5424259 5.48128129 12 8 C12.8353125 7.13375 12.8353125 7.13375 13.6875 6.25 C20.70169037 -0.57461765 20.70169037 -0.57461765 25.3125 -0.6875 C30.88047809 0.35059761 30.88047809 0.35059761 33 3 C33.52979878 6.5572204 33.43204232 8.31593299 31.5 11.375 C31.005 11.91125 30.51 12.4475 30 13 C26.125 11.125 26.125 11.125 25 10 C22.6704053 9.49758678 22.6704053 9.49758678 20 10 C17.29182272 12.20802268 17.29182272 12.20802268 15 15 C14.4635083 15.61810547 13.9270166 16.23621094 13.37426758 16.87304688 C11.74210116 19.39914988 11.62592879 20.79738888 11.63671875 23.78125 C11.63607422 24.70083496 11.63542969 25.62041992 11.63476562 26.56787109 C11.66086914 28.0192749 11.66086914 28.0192749 11.6875 29.5 C11.69587891 30.48436035 11.70425781 31.4687207 11.71289062 32.48291016 C11.82832974 39.48660138 12.38516555 46.16578991 14 53 C10.1130079 54.65642617 7.26573866 55.47397096 3 55 C0.85834096 51.78751144 0.7558694 51.00143898 0.78881836 47.31665039 C0.79219711 46.36879166 0.79557587 45.42093292 0.79905701 44.4443512 C0.81251663 43.42244186 0.82597626 42.40053253 0.83984375 41.34765625 C0.84504532 40.29597763 0.85024689 39.24429901 0.85560608 38.16075134 C0.87344221 34.79452818 0.90460957 31.42860716 0.9375 28.0625 C0.96512257 24.69999251 0.98984246 21.3375288 1.00868225 17.97496033 C1.02092995 15.88146573 1.03852436 13.78799418 1.06199646 11.69459534 C1.06852737 10.74358444 1.07505829 9.79257355 1.08178711 8.81274414 C1.09004013 7.97796036 1.09829315 7.14317657 1.10679626 6.28309631 C1.00251159 4.05369299 0.62252442 2.13744326 0 0 Z " fill="#41398A" transform="translate(1041,1349)"/>
<path d="M0 0 C2.1643575 2.1643575 1.23618243 7.17586304 1.28125 10.1875 C1.30886414 11.58500488 1.30886414 11.58500488 1.33703613 13.01074219 C1.39597709 16.00709507 1.44862609 19.00350843 1.5 22 C1.55161179 24.96791907 1.6047451 27.93576722 1.66296387 30.90356445 C1.69919623 32.75228728 1.73171757 34.60108792 1.7598877 36.44995117 C1.86866715 42.02627442 2.30810746 47.46485967 3 53 C-0.47745199 54.58969234 -3.16442626 55.41465662 -7 55 C-9.40460588 52.59539412 -9.25939357 52.02233595 -9.30297852 48.73730469 C-9.31962051 47.85588806 -9.33626251 46.97447144 -9.35340881 46.06634521 C-9.36182297 45.11117004 -9.37023712 44.15599487 -9.37890625 43.171875 C-9.39590073 42.19011292 -9.4128952 41.20835083 -9.43040466 40.19683838 C-9.48365875 37.04795831 -9.52385054 33.89909055 -9.5625 30.75 C-9.60652585 27.61526293 -9.6533885 24.48062479 -9.70530701 21.3460083 C-9.73707229 19.39389443 -9.76402062 17.44169465 -9.78553772 15.48944092 C-9.85495106 10.88914234 -10.06763013 6.52610382 -11 2 C-6.95807022 -0.69461986 -4.7948504 -0.23200889 0 0 Z " fill="#403889" transform="translate(425,1349)"/>
<path d="M0 0 C1.52354236 1.52354236 1.15419782 2.90012843 1.18945312 5.02563477 C1.21452942 6.3081588 1.21452942 6.3081588 1.2401123 7.61659241 C1.25368774 8.54878098 1.26726318 9.48096954 1.28125 10.44140625 C1.30886414 11.87576271 1.30886414 11.87576271 1.33703613 13.33909607 C1.39598088 16.41349936 1.44864169 19.4879612 1.5 22.5625 C1.55156049 25.61203821 1.6046353 28.66150556 1.66296387 31.71092224 C1.69928586 33.61080295 1.73179066 35.51076172 1.7598877 37.41078186 C1.86035443 42.6817451 2.24880964 47.78082365 3 53 C-0.47745199 54.58969234 -3.16442626 55.41465662 -7 55 C-9.42526255 52.57473745 -9.26004321 51.95226895 -9.30297852 48.62963867 C-9.32794151 47.27264107 -9.32794151 47.27264107 -9.35340881 45.88822937 C-9.36182297 44.90804337 -9.37023712 43.92785736 -9.37890625 42.91796875 C-9.39590073 41.91163895 -9.4128952 40.90530914 -9.43040466 39.8684845 C-9.48366372 36.64155407 -9.52386172 33.41463605 -9.5625 30.1875 C-9.60648723 26.9711444 -9.65330201 23.75488668 -9.70530701 20.53865051 C-9.73714211 18.53537819 -9.76406961 16.53202047 -9.78553772 14.52861023 C-9.79902756 13.61448868 -9.8125174 12.70036713 -9.82641602 11.75854492 C-9.84068382 10.55847054 -9.84068382 10.55847054 -9.85523987 9.33415222 C-10.0112716 6.81825354 -10.45405045 4.45834829 -11 2 C-6.95807022 -0.69461986 -4.7948504 -0.23200889 0 0 Z " fill="#3F3889" transform="translate(661,1349)"/>
<path d="M0 0 C1.54038569 1.54038569 1.15480947 2.98720446 1.18945312 5.13330078 C1.21452942 6.45069748 1.21452942 6.45069748 1.2401123 7.79470825 C1.25368774 8.75190765 1.26726318 9.70910706 1.28125 10.6953125 C1.30886414 12.16652054 1.30886414 12.16652054 1.33703613 13.66744995 C1.39598448 16.81990356 1.44865651 19.97241392 1.5 23.125 C1.55151197 26.25615728 1.60453084 29.38724383 1.66296387 32.51828003 C1.6993712 34.46931868 1.73185958 36.42043554 1.7598877 38.37161255 C1.85245538 43.33943 2.1688434 48.09970932 3 53 C-0.47745199 54.58969234 -3.16442626 55.41465662 -7 55 C-9.42526255 52.57473745 -9.26004321 51.95226895 -9.30297852 48.62963867 C-9.32794151 47.27264107 -9.32794151 47.27264107 -9.35340881 45.88822937 C-9.36182297 44.90804337 -9.37023712 43.92785736 -9.37890625 42.91796875 C-9.39590073 41.91163895 -9.4128952 40.90530914 -9.43040466 39.8684845 C-9.48366372 36.64155407 -9.52386172 33.41463605 -9.5625 30.1875 C-9.60648723 26.9711444 -9.65330201 23.75488668 -9.70530701 20.53865051 C-9.73714211 18.53537819 -9.76406961 16.53202047 -9.78553772 14.52861023 C-9.79902756 13.61448868 -9.8125174 12.70036713 -9.82641602 11.75854492 C-9.84068382 10.55847054 -9.84068382 10.55847054 -9.85523987 9.33415222 C-10.0112716 6.81825354 -10.45405045 4.45834829 -11 2 C-6.95807022 -0.69461986 -4.7948504 -0.23200889 0 0 Z " fill="#3F3889" transform="translate(968,1349)"/>
<path d="M0 0 C11.69586421 4.23013683 11.69586421 4.23013683 14.7578125 9.05859375 C14.9453125 12.12109375 14.9453125 12.12109375 13.7578125 15.05859375 C6.63851335 20.78498654 -0.40611701 20.80001116 -9.2421875 20.05859375 C-13.22328341 18.661591 -16.27421502 15.77587509 -18.2421875 12.05859375 C-18.77329093 9.00474905 -18.86396089 7.0511283 -17.1875 4.375 C-12.1625745 -1.82439034 -7.38792364 -2.14516819 0 0 Z " fill="#FAFAFB" transform="translate(529.2421875,1401.94140625)"/>
<path d="M0 0 C3.74030185 1.60298651 4.73158465 2.59737698 7 6 C7.69920885 10.79689791 7.71482085 14.77459282 5.25 19 C1.07886658 22.70767415 -2.27210632 23.44145407 -7.74609375 23.32421875 C-11.23018866 22.82304045 -13.36363986 21.25055134 -16 19 C-18.81725233 14.7741215 -18.79958384 10.96375312 -18 6 C-12.86383938 -0.62294396 -7.93125295 -0.65329685 0 0 Z " fill="#F9F9FB" transform="translate(533,1355)"/>
<path d="M0 0 C0.79921875 0.00644531 1.5984375 0.01289062 2.421875 0.01953125 C3.246875 0.03628906 4.071875 0.05304688 4.921875 0.0703125 C5.76234375 0.07933594 6.6028125 0.08835937 7.46875 0.09765625 C9.53658104 0.12115433 11.60426495 0.15702342 13.671875 0.1953125 C14.86297597 13.34705237 14.86297597 13.34705237 12.3125 17.3046875 C6.86837093 21.12907569 0.05758609 21.21372332 -6.328125 20.1953125 C-9.40178286 18.38727846 -10.75832232 17.33491786 -12.328125 14.1953125 C-12.71294557 10.11621444 -12.76934357 7.90441377 -10.578125 4.3828125 C-7.23882296 1.13626885 -4.65429736 -0.06648996 0 0 Z " fill="#F8F8FA" transform="translate(880.328125,1375.8046875)"/>
<path d="M0 0 C0.79921875 0.00644531 1.5984375 0.01289062 2.421875 0.01953125 C3.246875 0.03628906 4.071875 0.05304688 4.921875 0.0703125 C5.76234375 0.07933594 6.6028125 0.08835937 7.46875 0.09765625 C9.53658104 0.12115433 11.60426495 0.15702342 13.671875 0.1953125 C14.86297597 13.34705237 14.86297597 13.34705237 12.3125 17.3046875 C6.86837093 21.12907569 0.05758609 21.21372332 -6.328125 20.1953125 C-9.40178286 18.38727846 -10.75832232 17.33491786 -12.328125 14.1953125 C-12.71294557 10.11621444 -12.76934357 7.90441377 -10.578125 4.3828125 C-7.23882296 1.13626885 -4.65429736 -0.06648996 0 0 Z " fill="#F8F8FA" transform="translate(319.328125,1375.8046875)"/>
<path d="M0 0 C2.81561228 1.27403436 5.56793436 2.64238963 8.3125 4.0625 C9.05306641 4.43955078 9.79363281 4.81660156 10.55664062 5.20507812 C12.37387522 6.13128157 14.18732404 7.06490629 16 8 C16 8.66 16 9.32 16 10 C-2.07959232 18.30340827 -2.07959232 18.30340827 -9.0078125 16 C-13.44431228 14.20401936 -17.73286688 12.16404608 -22 10 C-22 9.34 -22 8.68 -22 8 C-19.28348686 6.45570235 -16.55013724 4.94398394 -13.8125 3.4375 C-13.04357422 2.99986328 -12.27464844 2.56222656 -11.48242188 2.11132812 C-4.30763581 -1.79939217 -4.30763581 -1.79939217 0 0 Z " fill="#3D3688" transform="translate(525,994)"/>
<path d="M0 0 C3.71296769 1.54706987 6.07107981 3.44672597 8 7 C8.62401396 12.09611399 8.62401396 12.09611399 6.8503418 14.6652832 C4.20464008 16.57372116 2.25616178 16.34033407 -0.98046875 16.29296875 C-2.14384766 16.28330078 -3.30722656 16.27363281 -4.50585938 16.26367188 C-6.32827148 16.2259668 -6.32827148 16.2259668 -8.1875 16.1875 C-9.41404297 16.17396484 -10.64058594 16.16042969 -11.90429688 16.14648438 C-14.93663664 16.11108741 -17.96809996 16.0617076 -21 16 C-20.5657124 11.08600601 -19.98447786 8.22483534 -16.5625 4.625 C-15.94503906 3.95726562 -15.32757812 3.28953125 -14.69140625 2.6015625 C-10.61863063 -1.25487631 -5.29010317 -0.42872037 0 0 Z " fill="#F9F9FB" transform="translate(742,1355)"/>
<path d="M0 0 C3.36012189 1.65058619 5.22534314 2.90843806 7.375 5.9375 C8.14495965 8.47836685 8.33849094 10.35977064 8 13 C6.82250977 14.63183594 6.82250977 14.63183594 5 16 C2.48803711 16.35644531 2.48803711 16.35644531 -0.47265625 16.328125 C-1.53677734 16.32296875 -2.60089844 16.3178125 -3.69726562 16.3125 C-4.80779297 16.291875 -5.91832031 16.27125 -7.0625 16.25 C-8.17689453 16.24484375 -9.29128906 16.2396875 -10.43945312 16.234375 C-18.69138451 16.15430775 -18.69138451 16.15430775 -21 15 C-20.6298852 8.83142002 -19.24224897 6.24224897 -15 2 C-10.33812879 -0.912427 -5.31770914 -0.63104508 0 0 Z " fill="#F9F9FB" transform="translate(1014,1355)"/>
<path d="M0 0 C3.38121991 2.44598887 4.76936783 3.89296559 5.625 8 C4.76936783 12.10703441 3.38121991 13.55401113 0 16 C-3.95779649 16.62491523 -6.00863886 16.61006839 -9.4375 14.5 C-11.63828902 10.97873756 -11.80414661 8.04560357 -11 4 C-8.16650967 -0.53358453 -5.10426635 -0.80593679 0 0 Z " fill="#3F3788" transform="translate(525,785)"/>
<path d="M0 0 C1.90625 0.4140625 1.90625 0.4140625 4.40625 1.9765625 C6.51631839 5.40542364 6.53116523 7.45626601 5.90625 11.4140625 C3.43131641 14.83529423 2.02361219 16.20883271 -2.15625 16.9765625 C-5.83720769 16.27169826 -6.96375351 15.4907241 -9.09375 12.4140625 C-10.28623952 8.31487978 -10.54707378 6.34041979 -8.65625 2.4765625 C-5.57003163 -0.00746692 -3.87096542 -0.27443412 0 0 Z " fill="#3F3788" transform="translate(572.09375,817.5859375)"/>
<path d="M0 0 C2.5625 2.0625 2.5625 2.0625 4 5 C4.07481382 9.26438773 3.64839572 11.23718151 0.875 14.5 C-2.91613014 16.47798094 -4.92797973 16.13111674 -9 15 C-10.9375 13.9375 -10.9375 13.9375 -12 12 C-12.75 5.25 -12.75 5.25 -10.5 1.5 C-6.9757983 -0.61452102 -4.00426261 -0.93350908 0 0 Z " fill="#3E3688" transform="translate(480,818)"/>
<path d="M0 0 C1.9375 1.125 1.9375 1.125 3 3 C3.5 5.9375 3.5 5.9375 3 9 C0.3734284 11.93558002 -1.21594495 12.89023229 -5.125 13.4375 C-8 13 -8 13 -9.875 11.875 C-11.55468045 9.07553259 -11.45742277 7.20195936 -11 4 C-8.05323917 -0.47907646 -5.13567732 -0.65363166 0 0 Z " fill="#3E3688" transform="translate(661,1326)"/>
<path d="M0 0 C1.9375 1.125 1.9375 1.125 3 3 C3.5 5.9375 3.5 5.9375 3 9 C0.3734284 11.93558002 -1.21594495 12.89023229 -5.125 13.4375 C-8 13 -8 13 -9.875 11.875 C-11.55468045 9.07553259 -11.45742277 7.20195936 -11 4 C-8.05323917 -0.47907646 -5.13567732 -0.65363166 0 0 Z " fill="#3E3688" transform="translate(425,1326)"/>
<path d="M0 0 C2 1.0625 2 1.0625 3 3 C2.9333964 6.72980144 2.80428591 9.07656062 0.3125 11.9375 C-2.69101831 13.3174949 -4.72976207 13.41747718 -8 13 C-9.875 11.875 -9.875 11.875 -11 10 C-11.53520313 6.40649325 -11.44814771 4.68118452 -9.4375 1.625 C-6.1005787 -0.5996142 -3.93094707 -0.50030235 0 0 Z " fill="#3C3587" transform="translate(968,1326)"/>
</svg>
